<svg width="15" height="15" viewBox="0 0 15 15" fill="none" xmlns="http://www.w3.org/2000/svg">
<path d="M6.8551 14.7808L0.214968 8.01136C0.13535 7.93019 0.079618 7.84903 0.0477709 7.76786C0.0159237 7.68669 0 7.5974 0 7.5C0 7.4026 0.0159237 7.31331 0.0477709 7.23214C0.079618 7.15097 0.13535 7.06981 0.214968 6.98864L6.87898 0.194805C7.00637 0.0649349 7.1656 0 7.35669 0C7.54777 0 7.71497 0.0730518 7.85828 0.219156C8.00159 0.36526 8.07325 0.535714 8.07325 0.730519C8.07325 0.925325 8.00159 1.09578 7.85828 1.24188L2.43631 6.76948H14.2834C14.4904 6.76948 14.6616 6.83847 14.797 6.97646C14.9323 7.11445 15 7.28896 15 7.5C15 7.71104 14.9323 7.88555 14.797 8.02354C14.6616 8.16153 14.4904 8.23052 14.2834 8.23052H2.43631L7.88216 13.7825C8.00955 13.9123 8.07325 14.0747 8.07325 14.2695C8.07325 14.4643 8.00159 14.6347 7.85828 14.7808C7.71497 14.9269 7.54777 15 7.35669 15C7.1656 15 6.99841 14.9269 6.8551 14.7808Z" fill="white"/>
</svg>
