<svg width="18" height="18" viewBox="0 0 18 18" fill="none" xmlns="http://www.w3.org/2000/svg">
<path d="M17.4905 3.07509C17.063 2.55008 16.4255 2.25007 15.7505 2.25007H5.43016L5.40016 1.98756C5.33521 1.44022 5.07188 0.935682 4.66 0.569414C4.24812 0.203147 3.71627 0.000563117 3.16509 0L2.25007 0C1.83755 0 1.50004 0.33751 1.50004 0.750022C1.50004 1.16253 1.83755 1.50004 2.25007 1.50004H3.16509C3.54761 1.50004 3.86262 1.78505 3.90762 2.16006L4.94265 10.9353C5.16765 12.8254 6.7652 14.2504 8.67026 14.2504H15.0004C15.413 14.2504 15.7505 13.9129 15.7505 13.5004C15.7505 13.0879 15.413 12.7504 15.0004 12.7504H8.67026C7.70273 12.7504 6.8702 12.1279 6.5552 11.2503H13.6204C15.4055 11.2503 16.9505 9.9828 17.2955 8.23524L17.9555 4.94265C18.0215 4.61636 18.014 4.27948 17.9336 3.95645C17.8531 3.63342 17.7018 3.33235 17.4905 3.07509ZM8.25025 16.5005C8.25025 17.3255 7.57523 18.0005 6.7502 18.0005C5.92518 18.0005 5.25016 17.3255 5.25016 16.5005C5.25016 15.6755 5.92518 15.0004 6.7502 15.0004C7.57523 15.0004 8.25025 15.6755 8.25025 16.5005ZM15.0004 16.5005C15.0004 17.3255 14.3254 18.0005 13.5004 18.0005C12.6754 18.0005 12.0004 17.3255 12.0004 16.5005C12.0004 15.6755 12.6754 15.0004 13.5004 15.0004C14.3254 15.0004 15.0004 15.6755 15.0004 16.5005ZM0 4.50013C0 4.08762 0.33751 3.75011 0.750022 3.75011H1.90506C2.31757 3.75011 2.65508 4.08762 2.65508 4.50013C2.65508 4.91265 2.31757 5.25016 1.90506 5.25016H0.750022C0.33751 5.25016 0 4.91265 0 4.50013ZM0 7.50022C0 7.08771 0.33751 6.7502 0.750022 6.7502H2.25007C2.66258 6.7502 3.00009 7.08771 3.00009 7.50022C3.00009 7.91274 2.66258 8.25025 2.25007 8.25025H0.750022C0.33751 8.25025 0 7.91274 0 7.50022ZM3.75011 10.5003C3.75011 10.9128 3.4126 11.2503 3.00009 11.2503H0.750022C0.33751 11.2503 0 10.9128 0 10.5003C0 10.0878 0.33751 9.75029 0.750022 9.75029H3.00009C3.4126 9.75029 3.75011 10.0878 3.75011 10.5003Z" fill="#19B890"/>
</svg>
