<svg width="30" height="30" viewBox="0 0 30 30" fill="none" xmlns="http://www.w3.org/2000/svg">
    <path
        d="M23.9718 4.16786C22.4866 2.9319 20.7614 2.01696 18.9051 1.4807C17.0487 0.944431 15.1014 0.798467 13.1859 1.052C9.64222 1.51237 6.40658 3.30411 4.13596 6.06341C1.86534 8.82272 0.729941 12.3427 0.960314 15.9087C1.19069 19.4748 2.76956 22.8194 5.37634 25.2636C7.98312 27.7079 11.4224 29.0684 14.9958 29.069H23.1805C24.7345 29.0671 26.2242 28.449 27.323 27.3502C28.4219 26.2514 29.04 24.7616 29.0418 23.2077V14.118C28.9178 12.2019 28.4042 10.3312 27.5324 8.62035C26.6607 6.90951 25.4491 5.39446 23.9718 4.16786ZM10.2857 9.14058H14.9747C15.2856 9.14058 15.5838 9.26409 15.8037 9.48393C16.0235 9.70377 16.147 10.0019 16.147 10.3128C16.147 10.6237 16.0235 10.9219 15.8037 11.1417C15.5838 11.3616 15.2856 11.4851 14.9747 11.4851H10.2857C9.97481 11.4851 9.67664 11.3616 9.4568 11.1417C9.23696 10.9219 9.11345 10.6237 9.11345 10.3128C9.11345 10.0019 9.23696 9.70377 9.4568 9.48393C9.67664 9.26409 9.97481 9.14058 10.2857 9.14058ZM19.6638 20.8632H10.2857C9.97481 20.8632 9.67664 20.7397 9.4568 20.5198C9.23696 20.3 9.11345 20.0018 9.11345 19.6909C9.11345 19.38 9.23696 19.0818 9.4568 18.862C9.67664 18.6421 9.97481 18.5186 10.2857 18.5186H19.6638C19.9747 18.5186 20.2728 18.6421 20.4927 18.862C20.7125 19.0818 20.836 19.38 20.836 19.6909C20.836 20.0018 20.7125 20.3 20.4927 20.5198C20.2728 20.7397 19.9747 20.8632 19.6638 20.8632ZM19.6638 16.1741H10.2857C9.97481 16.1741 9.67664 16.0506 9.4568 15.8308C9.23696 15.6109 9.11345 15.3128 9.11345 15.0019C9.11345 14.691 9.23696 14.3928 9.4568 14.173C9.67664 13.9531 9.97481 13.8296 10.2857 13.8296H19.6638C19.9747 13.8296 20.2728 13.9531 20.4927 14.173C20.7125 14.3928 20.836 14.691 20.836 15.0019C20.836 15.3128 20.7125 15.6109 20.4927 15.8308C20.2728 16.0506 19.9747 16.1741 19.6638 16.1741Z"
        fill="white" />
</svg>