<?xml version="1.0" standalone="no"?>
<!DOCTYPE svg PUBLIC "-//W3C//DTD SVG 20010904//EN" "http://www.w3.org/TR/2001/REC-SVG-20010904/DTD/svg10.dtd">
<svg version="1.0" xmlns="http://www.w3.org/2000/svg" width="512.000000pt" height="512.000000pt"
    viewBox="0 0 512.000000 512.000000" preserveAspectRatio="xMidYMid meet">

    <g transform="translate(0.000000,512.000000) scale(0.100000,-0.100000)" fill="currentColor" stroke="none">
        <path d="M539 2747 c-24 -13 -57 -43 -74 -66 -27 -38 -30 -50 -30 -119 0 -76
1 -79 64 -192 34 -63 92 -160 128 -214 l65 -99 -171 -171 c-106 -107 -176
-185 -186 -208 -56 -136 49 -288 200 -288 78 0 111 22 276 187 l157 156 111
-95 c60 -52 151 -124 200 -159 50 -35 91 -67 91 -71 0 -5 -44 -95 -97 -201
-87 -172 -97 -198 -97 -247 -1 -180 214 -277 351 -157 24 22 63 86 130 221 52
105 96 192 98 194 1 1 33 -9 71 -24 100 -38 314 -90 426 -105 l97 -12 3 -257
c3 -255 3 -257 28 -293 14 -21 43 -50 64 -65 35 -24 49 -27 116 -27 67 0 81 3
116 27 21 15 50 44 64 65 25 36 25 38 28 293 l3 257 96 12 c120 16 303 60 413
100 46 17 84 30 86 28 1 -1 45 -88 97 -193 67 -135 106 -199 130 -221 137
-120 353 -23 351 157 -1 49 -12 77 -98 247 -53 106 -96 196 -96 201 0 4 41 36
91 71 49 35 140 107 200 159 l111 95 157 -156 c166 -166 198 -187 278 -187
115 1 213 97 213 210 0 76 -18 101 -197 281 l-174 176 64 99 c36 54 93 151
128 214 57 102 64 121 67 180 3 53 -1 73 -20 109 -34 64 -95 104 -167 109
-117 8 -169 -30 -254 -192 -144 -271 -374 -543 -607 -715 -480 -356 -1083
-460 -1621 -280 -289 97 -511 234 -738 454 -175 170 -297 331 -407 540 -83
156 -130 195 -237 195 -37 0 -68 -7 -98 -23z" />
    </g>
</svg>