<svg width="18" height="19" viewBox="0 0 18 19" fill="none" xmlns="http://www.w3.org/2000/svg">
<path d="M17.1529 16.3902H1.90479C1.68012 16.3902 1.46465 16.4794 1.30579 16.6383C1.14692 16.7972 1.05767 17.0126 1.05767 17.2373C1.05767 17.462 1.14692 17.6774 1.30579 17.8363C1.46465 17.9952 1.68012 18.0844 1.90479 18.0844H17.1529C17.3776 18.0844 17.593 17.9952 17.7519 17.8363C17.9108 17.6774 18 17.462 18 17.2373C18 17.0126 17.9108 16.7972 17.7519 16.6383C17.593 16.4794 17.3776 16.3902 17.1529 16.3902ZM7.13997 15.5422C7.77785 15.5422 8.41573 15.2991 8.90112 14.8137L15.2943 8.42051C15.373 8.3419 15.4355 8.24855 15.4781 8.14578C15.5207 8.04301 15.5427 7.93285 15.5427 7.8216C15.5427 7.71034 15.5207 7.60018 15.4781 7.49741C15.4355 7.39464 15.373 7.30129 15.2943 7.22268L8.32 0.248375C8.2414 0.16964 8.14805 0.107175 8.04528 0.0645561C7.94251 0.0219371 7.83235 0 7.72109 0C7.60984 0 7.49967 0.0219371 7.39691 0.0645561C7.29414 0.107175 7.20078 0.16964 7.12218 0.248375L0.728146 6.64072C0.261856 7.10823 0 7.74157 0 8.40187C0 9.06217 0.261856 9.69551 0.728146 10.163L5.37797 14.8128C5.60913 15.0445 5.8838 15.2282 6.18618 15.3534C6.48856 15.4785 6.8127 15.5427 7.13997 15.5422ZM7.72109 2.04426L13.4976 7.82075L13.3993 7.91901H1.87345C1.89378 7.8936 1.9031 7.86226 1.92682 7.83854L7.72109 2.04426ZM13.7644 13.355C13.7644 14.5613 14.7149 15.5431 15.8822 15.5431C17.0495 15.5431 18 14.5613 18 13.355C18 12.3825 16.7852 10.4638 16.4125 9.89957C16.1779 9.54209 15.5866 9.54209 15.3519 9.89957C14.9792 10.4638 13.7644 12.3825 13.7644 13.355Z" fill="#19B890"/>
</svg>
