<svg width="29" height="20" viewBox="0 0 29 20" fill="none" xmlns="http://www.w3.org/2000/svg">
<path d="M22.7243 17.2731H5.45412C4.95212 17.2731 4.54517 17.6801 4.54517 18.1821V19.091C4.54517 19.5931 4.95212 20 5.45412 20H22.7243C23.2263 20 23.6332 19.5931 23.6332 19.091V18.1821C23.6332 17.6801 23.2263 17.2731 22.7243 17.2731Z" fill="#FADF7D"/>
<path d="M22.7243 19.091H5.45412C5.21327 19.0903 4.98249 18.9943 4.81219 18.824C4.64188 18.6537 4.54589 18.4229 4.54517 18.1821V19.091C4.54589 19.3319 4.64188 19.5626 4.81219 19.733C4.98249 19.9033 5.21327 19.9993 5.45412 20H22.7243C22.9651 19.9993 23.1959 19.9033 23.3662 19.733C23.5365 19.5626 23.6325 19.3319 23.6332 19.091V18.1821C23.6325 18.4229 23.5365 18.6537 23.3662 18.824C23.1959 18.9943 22.9651 19.0903 22.7243 19.091Z" fill="#FFBF40"/>
<path d="M2.81346 5.16132C2.475 5.38277 2.07235 5.48501 1.66924 5.45188C1.26612 5.41875 0.885575 5.25213 0.587813 4.97838C0.290051 4.70464 0.0920841 4.33942 0.0252422 3.94051C-0.0415997 3.5416 0.0265012 3.13179 0.218767 2.77594C0.411034 2.42008 0.716483 2.13851 1.08678 1.97579C1.45707 1.81306 1.87106 1.77847 2.26322 1.8775C2.65538 1.97652 3.00332 2.2035 3.25197 2.52251C3.50062 2.84152 3.63578 3.23435 3.63606 3.63882C3.63627 3.94097 3.56117 4.2384 3.41754 4.50423C3.27392 4.77006 3.0663 4.99589 2.81346 5.16132ZM15.0116 3.38431C14.7327 3.55089 14.4139 3.63885 14.089 3.63885C13.7642 3.63885 13.4454 3.55089 13.1665 3.38431C12.8228 3.18191 12.5552 2.8721 12.405 2.50264C12.2548 2.13318 12.2302 1.72457 12.3351 1.33978C12.44 0.95499 12.6686 0.615373 12.9855 0.373266C13.3024 0.131159 13.6902 0 14.089 0C14.4879 0 14.8756 0.131159 15.1926 0.373266C15.5095 0.615373 15.738 0.95499 15.8429 1.33978C15.9478 1.72457 15.9233 2.13318 15.7731 2.50264C15.6228 2.8721 15.3553 3.18191 15.0116 3.38431ZM26.3599 5.45673C26.0004 5.45673 25.6489 5.35011 25.3499 5.15036C25.051 4.9506 24.818 4.66668 24.6804 4.3345C24.5428 4.00232 24.5068 3.6368 24.5769 3.28416C24.6471 2.93152 24.8202 2.6076 25.0745 2.35336C25.3287 2.09913 25.6526 1.92599 26.0053 1.85584C26.3579 1.7857 26.7234 1.8217 27.0556 1.95929C27.3878 2.09688 27.6717 2.32989 27.8715 2.62884C28.0712 2.9278 28.1778 3.27927 28.1778 3.63882C28.1778 4.12096 27.9863 4.58335 27.6454 4.92428C27.3045 5.2652 26.8421 5.45673 26.3599 5.45673Z" fill="#FFC608"/>
<path d="M21.3606 5.82939C21.2154 5.88443 21.0613 5.91216 20.9061 5.9112C20.7081 5.91166 20.5126 5.8682 20.3334 5.78394C20.0453 5.65183 19.812 5.42366 19.6736 5.13848C19.5351 4.85331 19.5001 4.52888 19.5746 4.22074C19.649 3.91261 19.8283 3.63993 20.0816 3.44941C20.335 3.25889 20.6467 3.16237 20.9634 3.17639C21.2801 3.1904 21.582 3.31407 21.8176 3.52622C22.0531 3.73838 22.2076 4.02582 22.2545 4.33933C22.3015 4.65283 22.2379 4.9729 22.0749 5.24474C21.9118 5.51657 21.6593 5.72325 21.3606 5.82939ZM7.84441 5.78394C7.66529 5.8682 7.46971 5.91166 7.27177 5.9112C7.11653 5.91216 6.96245 5.88443 6.81729 5.82939C6.52052 5.72325 6.26983 5.51732 6.1081 5.2468C5.94636 4.97628 5.88362 4.65798 5.9306 4.34632C5.97758 4.03466 6.13137 3.749 6.36567 3.53818C6.59997 3.32736 6.90022 3.20448 7.21509 3.19055C7.52997 3.17662 7.8399 3.2725 8.09191 3.4618C8.34391 3.6511 8.52232 3.92206 8.59665 4.22835C8.67097 4.53465 8.63659 4.85724 8.49938 5.14099C8.36217 5.42474 8.13065 5.65201 7.84441 5.78394Z" fill="#FF9C00"/>
<path d="M11.244 11.2649C10.6941 12.1421 9.98963 12.7283 9.08977 12.7283C8.43532 12.7283 7.6309 12.0875 6.81738 11.174V5.82938C6.96254 5.88442 7.11662 5.91216 7.27186 5.91119C7.4698 5.91165 7.66538 5.86819 7.8445 5.78394C8.21263 6.77015 9.42608 9.7288 11.244 11.2649ZM21.3607 5.82938V11.174C20.5471 12.0875 19.7427 12.7283 19.0883 12.7283C18.1884 12.7283 17.484 12.1421 16.934 11.2649C18.752 9.7288 19.9654 6.77015 20.3335 5.78394C20.5127 5.86819 20.7082 5.91165 20.9062 5.91119C21.0614 5.91216 21.2155 5.88442 21.3607 5.82938Z" fill="#FFAA00"/>
<path d="M15.0299 15.8097C15.1088 15.8695 15.204 15.904 15.3028 15.9086C15.4017 15.9132 15.4997 15.8878 15.5838 15.8356C15.6679 15.7834 15.7343 15.707 15.7742 15.6164C15.814 15.5258 15.8255 15.4253 15.807 15.328L15.5662 14.1554L16.207 13.5283C16.2727 13.4632 16.3176 13.38 16.3361 13.2894C16.3546 13.1987 16.3457 13.1046 16.3107 13.019C16.2757 12.9333 16.216 12.86 16.1393 12.8083C16.0626 12.7566 15.9723 12.7288 15.8798 12.7284H14.9935L14.53 11.6376C14.4891 11.5557 14.4262 11.4868 14.3483 11.4386C14.2704 11.3904 14.1807 11.3649 14.0891 11.3649C13.9976 11.3649 13.9078 11.3904 13.8299 11.4386C13.7521 11.4868 13.6892 11.5557 13.6483 11.6376L13.1847 12.7284H12.2985C12.206 12.7288 12.1156 12.7566 12.0389 12.8083C11.9622 12.86 11.9026 12.9333 11.8676 13.019C11.8325 13.1046 11.8237 13.1987 11.8421 13.2894C11.8606 13.38 11.9055 13.4632 11.9713 13.5283L12.6121 14.1554L12.3712 15.328C12.3528 15.4253 12.3642 15.5258 12.4041 15.6164C12.4439 15.707 12.5103 15.7834 12.5944 15.8356C12.6786 15.8878 12.7765 15.9132 12.8754 15.9086C12.9743 15.904 13.0694 15.8695 13.1484 15.8097L14.0891 15.1189L15.0299 15.8097ZM21.3608 11.1741C23.1332 9.19256 24.9557 5.91578 25.3647 5.16134C25.6607 5.35447 26.0066 5.45713 26.36 5.45675L22.7242 15.4553V17.2732H5.45406V15.4553L1.81824 5.45675C2.17167 5.45713 2.51754 5.35447 2.81354 5.16134C3.22257 5.91578 5.04503 9.19256 6.81749 11.1741C7.631 12.0876 8.43543 12.7284 9.08987 12.7284C9.98974 12.7284 10.6942 12.1421 11.2441 11.265C12.7302 8.89715 13.1029 4.38419 13.1665 3.38434C13.4454 3.55092 13.7643 3.63887 14.0891 3.63887C14.414 3.63887 14.7328 3.55092 15.0117 3.38434C15.0753 4.38419 15.448 8.89715 16.9341 11.265C17.4841 12.1421 18.1885 12.7284 19.0884 12.7284C19.7428 12.7284 20.5472 12.0876 21.3608 11.1741Z" fill="#FADF7D"/>
<path d="M14.5299 11.6376L14.9934 12.7283H15.8797C15.9722 12.7287 16.0625 12.7565 16.1392 12.8083C16.2159 12.86 16.2756 12.9333 16.3106 13.0189C16.3456 13.1046 16.3545 13.1986 16.336 13.2893C16.3176 13.38 16.2726 13.4631 16.2069 13.5282L15.5661 14.1554L15.807 15.3279C15.8254 15.4252 15.8139 15.5258 15.7741 15.6164C15.7342 15.707 15.6678 15.7834 15.5837 15.8355C15.4996 15.8877 15.4016 15.9131 15.3027 15.9085C15.2039 15.9039 15.1087 15.8695 15.0298 15.8097L14.089 15.1189L13.1483 15.8097C13.0694 15.8695 12.9742 15.9039 12.8753 15.9085C12.7764 15.9131 12.6785 15.8877 12.5943 15.8355C12.5102 15.7834 12.4439 15.707 12.404 15.6164C12.3642 15.5258 12.3527 15.4252 12.3711 15.3279L12.612 14.1554L11.9712 13.5282C11.9054 13.4631 11.8605 13.38 11.842 13.2893C11.8236 13.1986 11.8324 13.1046 11.8675 13.0189C11.9025 12.9333 11.9621 12.86 12.0388 12.8083C12.1155 12.7565 12.2059 12.7287 12.2984 12.7283H13.1846L13.6482 11.6376C13.6891 11.5557 13.752 11.4867 13.8298 11.4386C13.9077 11.3904 13.9975 11.3649 14.089 11.3649C14.1806 11.3649 14.2704 11.3904 14.3482 11.4386C14.4261 11.4867 14.489 11.5557 14.5299 11.6376Z" fill="#D1013E"/>
<path d="M15.0117 2.47536C14.7328 2.64194 14.414 2.7299 14.0891 2.7299C13.7643 2.7299 13.4455 2.64194 13.1666 2.47536C12.754 2.23403 12.454 1.83903 12.3321 1.37689C12.2301 1.75667 12.2566 2.15955 12.4076 2.52268C12.5585 2.8858 12.8254 3.18877 13.1666 3.38432C13.4455 3.5509 13.7643 3.63885 14.0891 3.63885C14.414 3.63885 14.7328 3.5509 15.0117 3.38432C15.3529 3.18877 15.6198 2.8858 15.7707 2.52268C15.9217 2.15955 15.9482 1.75667 15.8461 1.37689C15.7243 1.83903 15.4243 2.23403 15.0117 2.47536ZM27.2826 4.29327C27.0037 4.45985 26.6849 4.54781 26.36 4.54781C26.0352 4.54781 25.7163 4.45985 25.4374 4.29327C25.0249 4.05194 24.7249 3.65694 24.603 3.1948C24.501 3.57458 24.5275 3.97746 24.6784 4.34058C24.8294 4.70371 25.0963 5.00668 25.4374 5.20223C25.7163 5.36881 26.0352 5.45676 26.36 5.45676C26.6849 5.45676 27.0037 5.36881 27.2826 5.20223C27.6238 5.00668 27.8907 4.70371 28.0416 4.34058C28.1926 3.97746 28.2191 3.57458 28.117 3.1948C27.9952 3.65694 27.6951 4.05194 27.2826 4.29327ZM2.74084 4.29327C2.46193 4.45985 2.14313 4.54781 1.81826 4.54781C1.49339 4.54781 1.17458 4.45985 0.895667 4.29327C0.483143 4.05194 0.183092 3.65694 0.061247 3.1948C-0.040791 3.57458 -0.0142715 3.97746 0.136669 4.34058C0.287609 4.70371 0.554484 5.00668 0.895667 5.20223C1.17458 5.36881 1.49339 5.45676 1.81826 5.45676C2.14313 5.45676 2.46193 5.36881 2.74084 5.20223C3.08203 5.00668 3.3489 4.70371 3.49984 4.34058C3.65078 3.97746 3.6773 3.57458 3.57526 3.1948C3.45342 3.65694 3.15337 4.05194 2.74084 4.29327Z" fill="#FFAA00"/>
<path d="M7.84454 4.87501C7.66542 4.95927 7.46984 5.00273 7.27189 5.00227C7.11666 5.00323 6.96258 4.9755 6.81742 4.92046C6.62659 4.85449 6.45308 4.74636 6.3098 4.6041C6.16652 4.46184 6.05715 4.28912 5.98981 4.09877C5.93766 4.24281 5.91016 4.39461 5.90846 4.54779C5.90711 4.82959 5.99405 5.10475 6.15707 5.33461C6.3201 5.56448 6.55102 5.73751 6.81742 5.82942C6.96258 5.88445 7.11666 5.91219 7.27189 5.91122C7.46984 5.91169 7.66542 5.86822 7.84454 5.78397C8.15382 5.6443 8.39882 5.3928 8.53033 5.07996C8.66184 4.76711 8.67013 4.4161 8.55352 4.0974C8.49332 4.26783 8.39956 4.42445 8.27778 4.55801C8.15601 4.69158 8.00869 4.79937 7.84454 4.87501ZM21.4789 4.87501C21.2997 4.95927 21.1042 5.00273 20.9062 5.00227C20.751 5.00323 20.5969 4.9755 20.4517 4.92046C20.2609 4.85449 20.0874 4.74636 19.9441 4.6041C19.8008 4.46184 19.6915 4.28912 19.6241 4.09877C19.572 4.24281 19.5445 4.39461 19.5428 4.54779C19.5414 4.82959 19.6284 5.10475 19.7914 5.33461C19.9544 5.56448 20.1853 5.73751 20.4517 5.82942C20.5969 5.88445 20.751 5.91219 20.9062 5.91122C21.1042 5.91169 21.2997 5.86822 21.4789 5.78397C21.7881 5.6443 22.0331 5.3928 22.1646 5.07996C22.2962 4.76711 22.3044 4.4161 22.1878 4.0974C22.1276 4.26783 22.0339 4.42445 21.9121 4.55801C21.7903 4.69158 21.643 4.79937 21.4789 4.87501Z" fill="#DE8800"/>
<path d="M7.7327 11.2104C7.59242 11.1313 7.47576 11.0163 7.39476 10.8771C7.31375 10.738 7.27133 10.5797 7.27186 10.4187V7.7291C7.27186 7.48803 7.36762 7.25683 7.53809 7.08637C7.70855 6.91591 7.93974 6.82014 8.18081 6.82014H8.26671C8.11619 6.47881 7.9754 6.13326 7.8445 5.78394C7.66538 5.86819 7.4698 5.91165 7.27186 5.91119C7.11662 5.91216 6.96254 5.88442 6.81738 5.82938V11.174C7.6309 12.0875 8.43532 12.7283 9.08977 12.7283C9.98963 12.7283 10.6941 12.1421 11.244 11.2649C11.1985 11.2254 11.1531 11.1813 11.1076 11.14C9.84965 12.1521 8.44123 11.609 7.7327 11.2104ZM20.9062 5.91119C20.7082 5.91165 20.5127 5.86819 20.3335 5.78394C20.2024 6.13319 20.0616 6.47872 19.9113 6.82014H19.9972C20.2383 6.82014 20.4695 6.91591 20.6399 7.08637C20.8104 7.25683 20.9062 7.48803 20.9062 7.7291V10.4187C20.9067 10.5797 20.8643 10.738 20.7833 10.8771C20.7023 11.0163 20.5856 11.1313 20.4453 11.2104C19.7368 11.609 18.3297 12.1489 17.0731 11.1386C17.0277 11.1804 16.9822 11.2249 16.934 11.2649C17.484 12.1421 18.1884 12.7283 19.0883 12.7283C19.7427 12.7283 20.5471 12.0875 21.3607 11.174V5.82938C21.2155 5.88442 21.0614 5.91216 20.9062 5.91119Z" fill="#FF9C00"/>
<path d="M25.2728 6.71569C25.3222 6.61882 25.4045 6.54273 25.505 6.50108C25.6054 6.45944 25.7174 6.45496 25.8209 6.48845L25.9668 6.53708L26.3599 5.45679C26.0065 5.45716 25.6606 5.35451 25.3646 5.16138C24.9556 5.91581 23.1331 9.19259 21.3606 11.1741C20.6512 11.9708 19.949 12.5594 19.3468 12.6971C20.1458 12.5498 22.6886 11.694 25.2728 6.71569ZM15.0298 15.8098L14.5471 15.4553H13.6309L13.1482 15.8098C13.0779 15.8623 12.9948 15.895 12.9075 15.9045C12.8202 15.914 12.732 15.8999 12.652 15.8637C12.5721 15.8275 12.5033 15.7705 12.4528 15.6987C12.4024 15.6268 12.3721 15.5428 12.3652 15.4553H8.1808C7.81919 15.4553 7.4724 15.3116 7.2167 15.0559C6.96101 14.8003 6.81737 14.4535 6.81737 14.0919L3.0802 7.03291C3.04352 6.96365 3.02537 6.88607 3.02753 6.80772C3.02968 6.72937 3.05206 6.65291 3.0925 6.58577C3.13293 6.51862 3.19004 6.46308 3.25828 6.42452C3.32652 6.38597 3.40358 6.36572 3.48196 6.36574H3.49332C3.26098 5.96719 3.03373 5.56571 2.8116 5.16138C2.51612 5.35417 2.17093 5.45681 1.81812 5.45679L5.45393 15.4553V17.2732H22.7241V15.4553H15.8128C15.8059 15.5428 15.7756 15.6268 15.7252 15.6987C15.6747 15.7705 15.6059 15.8275 15.526 15.8637C15.446 15.8999 15.3578 15.914 15.2705 15.9045C15.1832 15.895 15.1001 15.8623 15.0298 15.8098Z" fill="#FFBF40"/>
<path d="M13.5983 5.39858C13.6131 5.16773 13.7153 4.95122 13.8842 4.79314C14.0531 4.63506 14.2759 4.54733 14.5072 4.5478H15.1153C15.0734 4.16072 15.0395 3.77282 15.0135 3.38434C14.7346 3.55092 14.4158 3.63887 14.0909 3.63887C13.766 3.63887 13.4472 3.55092 13.1683 3.38434C13.1047 4.38419 12.732 8.89715 11.2459 11.265C10.6941 12.1421 9.98971 12.7284 9.08984 12.7284C12.7257 12.7284 13.4528 7.49281 13.5983 5.39858Z" fill="#FFBF40"/>
<path d="M16.7305 12.8456C16.6619 12.6763 16.5443 12.5314 16.3927 12.4295C16.241 12.3276 16.0624 12.2734 15.8797 12.2739H15.2939L14.9481 11.4595C14.9444 11.451 14.9403 11.4424 14.9358 11.4336C14.8576 11.276 14.7369 11.1434 14.5872 11.0509C14.4376 10.9585 14.265 10.9098 14.0891 10.9105C13.9086 10.9111 13.732 10.963 13.5799 11.0603C13.4278 11.1575 13.3065 11.2959 13.2301 11.4595L12.8843 12.2739H12.2985C12.1156 12.2743 11.937 12.329 11.7854 12.4311C11.6337 12.5333 11.5158 12.6782 11.4467 12.8474C11.3776 13.0167 11.3604 13.2027 11.3972 13.3818C11.434 13.5608 11.5233 13.7249 11.6536 13.8532L12.1167 14.3077L11.9262 15.2362C11.8869 15.4219 11.9056 15.6152 11.9797 15.79C12.0539 15.9647 12.1799 16.1125 12.3407 16.2133C12.494 16.3117 12.6722 16.3642 12.8543 16.3646C13.0572 16.3646 13.2546 16.2987 13.4169 16.1769L14.0891 15.6825L14.7581 16.1742C14.9124 16.2905 15.0987 16.3566 15.2918 16.3634C15.4849 16.3703 15.6754 16.3175 15.8375 16.2124C15.9982 16.1117 16.1241 15.9642 16.1983 15.7897C16.2725 15.6152 16.2914 15.4222 16.2524 15.2366L16.0615 14.3068L16.526 13.8523C16.6566 13.724 16.7458 13.5596 16.7822 13.3802C16.8187 13.2009 16.8007 13.0147 16.7305 12.8456ZM16.207 13.5273L15.5661 14.1545L15.807 15.3271C15.8254 15.4243 15.814 15.5249 15.7741 15.6155C15.7343 15.7061 15.6679 15.7825 15.5838 15.8347C15.4996 15.8868 15.4017 15.9123 15.3028 15.9077C15.2039 15.903 15.1088 15.8686 15.0299 15.8088L14.0891 15.1189L13.1483 15.8097C13.0694 15.8695 12.9743 15.9039 12.8754 15.9086C12.7765 15.9132 12.6785 15.8877 12.5944 15.8356C12.5103 15.7834 12.4439 15.707 12.4041 15.6164C12.3642 15.5258 12.3527 15.4252 12.3712 15.328L12.612 14.1554L11.9712 13.5282C11.9055 13.4631 11.8606 13.38 11.8421 13.2893C11.8237 13.1987 11.8325 13.1046 11.8675 13.019C11.9026 12.9333 11.9622 12.86 12.0389 12.8083C12.1156 12.7566 12.2059 12.7287 12.2985 12.7284H13.1847L13.6483 11.6376C13.6891 11.5557 13.752 11.4868 13.8299 11.4386C13.9078 11.3904 13.9975 11.3649 14.0891 11.3649C14.1807 11.3649 14.2704 11.3904 14.3483 11.4386C14.4262 11.4868 14.4891 11.5557 14.5299 11.6376L14.9935 12.7284H15.8797C15.9723 12.7287 16.0626 12.7566 16.1393 12.8083C16.216 12.86 16.2756 12.9333 16.3107 13.019C16.3457 13.1046 16.3545 13.1987 16.3361 13.2893C16.3176 13.38 16.2727 13.4631 16.207 13.5282V13.5273Z" fill="#FF9C00"/>
<path d="M21.3608 4.54776C21.6119 4.54776 21.8153 4.34428 21.8153 4.09328C21.8153 3.84228 21.6119 3.6388 21.3608 3.6388C21.1098 3.6388 20.9064 3.84228 20.9064 4.09328C20.9064 4.34428 21.1098 4.54776 21.3608 4.54776Z" fill="#FFC608"/>
<path d="M7.72633 4.54776C7.97733 4.54776 8.1808 4.34428 8.1808 4.09328C8.1808 3.84228 7.97733 3.6388 7.72633 3.6388C7.47533 3.6388 7.27185 3.84228 7.27185 4.09328C7.27185 4.34428 7.47533 4.54776 7.72633 4.54776Z" fill="#FFC608"/>
<path d="M14.5435 1.82093C14.7945 1.82093 14.9979 1.61746 14.9979 1.36646C14.9979 1.11546 14.7945 0.91198 14.5435 0.91198C14.2925 0.91198 14.089 1.11546 14.089 1.36646C14.089 1.61746 14.2925 1.82093 14.5435 1.82093Z" fill="#FFFCED"/>
<path d="M27.2691 3.63881C27.5201 3.63881 27.7235 3.43534 27.7235 3.18434C27.7235 2.93333 27.5201 2.72986 27.2691 2.72986C27.0181 2.72986 26.8146 2.93333 26.8146 3.18434C26.8146 3.43534 27.0181 3.63881 27.2691 3.63881Z" fill="#FFFCED"/>
<path d="M2.72706 3.63881C2.97806 3.63881 3.18154 3.43534 3.18154 3.18434C3.18154 2.93333 2.97806 2.72986 2.72706 2.72986C2.47606 2.72986 2.27258 2.93333 2.27258 3.18434C2.27258 3.43534 2.47606 3.63881 2.72706 3.63881Z" fill="#FFFCED"/>
</svg>
