<svg width="12" height="14" viewBox="0 0 12 14" fill="none" xmlns="http://www.w3.org/2000/svg">
<path d="M11.0833 2.33332H9.275C8.9959 0.976254 7.80213 0.00175 6.41665 0H5.24997C3.86449 0.00175 2.67072 0.976254 2.39165 2.33332H0.583324C0.26116 2.33332 0 2.59448 0 2.91665C0 3.23881 0.26116 3.5 0.583324 3.5H1.16665V11.0833C1.16859 12.6934 2.4733 13.9981 4.08332 14H7.58332C9.19335 13.9981 10.4981 12.6934 10.5 11.0833V3.5H11.0833C11.4055 3.5 11.6666 3.23884 11.6666 2.91668C11.6666 2.59451 11.4055 2.33332 11.0833 2.33332ZM5.25 9.91668C5.25 10.2388 4.98884 10.5 4.66668 10.5C4.34448 10.5 4.08332 10.2388 4.08332 9.91668V6.41668C4.08332 6.09451 4.34448 5.83335 4.66665 5.83335C4.98881 5.83335 5.24997 6.09451 5.24997 6.41668V9.91668H5.25ZM7.58332 9.91668C7.58332 10.2388 7.32216 10.5 7 10.5C6.67784 10.5 6.41668 10.2388 6.41668 9.91668V6.41668C6.41668 6.09451 6.67784 5.83335 7 5.83335C7.32216 5.83335 7.58332 6.09451 7.58332 6.41668V9.91668ZM3.59975 2.33332C3.84787 1.63466 4.5086 1.16755 5.25 1.16665H6.41668C7.15807 1.16755 7.81881 1.63466 8.06693 2.33332H3.59975Z" fill="white"/>
</svg>
