<svg width="18" height="18" viewBox="0 0 18 18" fill="none" xmlns="http://www.w3.org/2000/svg">
<path d="M14.7986 6.32387C14.7987 6.33712 14.8007 6.34999 14.8007 6.36328C14.8007 10.4342 11.2525 13.7461 6.89058 13.7461H4.64648C5.58551 16.2315 8.12178 18 11.1093 18H17.4726C17.6894 18 17.8841 17.8671 17.9634 17.6653C18.0427 17.4634 17.9902 17.2337 17.831 17.0859L16.3886 15.748C17.4319 14.6083 18 13.1451 18 11.6367C18 9.45151 16.7316 7.46986 14.7986 6.32387Z" fill="#19B890"/>
<path d="M0.168926 11.7773C0.0911882 11.8494 0.0369689 11.9432 0.0133395 12.0465C-0.01029 12.1498 -0.00223272 12.2579 0.0364603 12.3566C0.0751534 12.4552 0.142686 12.54 0.230251 12.5997C0.317816 12.6594 0.421348 12.6914 0.527344 12.6914H6.89062C10.6706 12.6914 13.7461 9.85282 13.7461 6.36328C13.7461 2.87374 10.6706 0 6.89062 0C3.11063 0 0 2.87374 0 6.36328C0 7.87166 0.56802 9.29971 1.61139 10.4394L0.168926 11.7773ZM3.72656 3.19922H10.0547C10.3462 3.19922 10.582 3.43508 10.582 3.72656C10.582 4.01804 10.3462 4.25391 10.0547 4.25391H3.72656C3.43508 4.25391 3.19922 4.01804 3.19922 3.72656C3.19922 3.43508 3.43508 3.19922 3.72656 3.19922ZM3.72656 5.30859H10.0547C10.3462 5.30859 10.582 5.54446 10.582 5.83594C10.582 6.12742 10.3462 6.36328 10.0547 6.36328H3.72656C3.43508 6.36328 3.19922 6.12742 3.19922 5.83594C3.19922 5.54446 3.43508 5.30859 3.72656 5.30859ZM3.72656 7.41797H10.0547C10.3462 7.41797 10.582 7.65383 10.582 7.94531C10.582 8.23679 10.3462 8.47266 10.0547 8.47266H3.72656C3.43508 8.47266 3.19922 8.23679 3.19922 7.94531C3.19922 7.65383 3.43508 7.41797 3.72656 7.41797Z" fill="#19B890"/>
</svg>
