<svg width="22" height="22" viewBox="0 0 22 22" fill="none" xmlns="http://www.w3.org/2000/svg">
<path d="M21.1709 9.08737H12.1966C11.8009 9.08737 11.4805 9.40772 11.4805 9.80343V12.6724C11.4805 13.0681 11.8009 13.3884 12.1966 13.3884H17.2514C16.7002 14.8253 15.6638 16.0266 14.3495 16.7897L16.5024 20.5208C19.9555 18.5233 22 15.0137 22 11.0895C22 10.5289 21.9576 10.1285 21.8775 9.68095C21.8116 9.33705 21.5148 9.08737 21.1709 9.08737Z" fill="#167EE6"/>
<path d="M11 17.6942C8.52679 17.6942 6.36918 16.3422 5.2103 14.3447L1.47925 16.4929C3.37775 19.7858 6.93449 22 11 22C12.9974 22 14.8771 21.4629 16.5024 20.5255V20.5207L14.3495 16.7897C13.3602 17.3644 12.2201 17.6942 11 17.6942Z" fill="#12B347"/>
<path d="M16.4976 20.5255V20.5208L14.3448 16.7897C13.3602 17.3598 12.2201 17.6942 11 17.6942V22C12.9974 22 14.8771 21.463 16.4976 20.5255Z" fill="#0F993E"/>
<path d="M4.30578 11C4.30578 9.77986 4.64026 8.63981 5.21028 7.65523L1.47923 5.50705C0.537045 7.1229 0 8.99784 0 11C0 13.0021 0.537045 14.8771 1.47923 16.4929L5.21028 14.3447C4.63555 13.3602 4.30578 12.2201 4.30578 11Z" fill="#FFD500"/>
<path d="M11 4.30578C12.6112 4.30578 14.0951 4.88051 15.2493 5.83212C15.5366 6.06767 15.9512 6.04882 16.2103 5.78972L18.2407 3.75932C18.5375 3.46253 18.5139 2.9773 18.1983 2.70407C16.2621 1.01756 13.7418 0 11 0C6.93449 0 3.37775 2.21413 1.47925 5.50707L5.2103 7.65525C6.36918 5.65782 8.52679 4.30578 11 4.30578Z" fill="#FF4B26"/>
<path d="M15.2493 5.83212C15.5366 6.06767 15.9512 6.04882 16.2103 5.78972L18.2407 3.75932C18.5375 3.46253 18.5139 2.9773 18.1983 2.70407C16.2621 1.01756 13.7418 0 11 0V4.30578C12.6111 4.30578 14.0951 4.8758 15.2493 5.83212Z" fill="#D93F21"/>
</svg>
