<svg width="44" height="44" viewBox="0 0 44 44" fill="none" xmlns="http://www.w3.org/2000/svg">
<path d="M35.2344 0.7547V8.59375H43.0728L35.2344 0.7547Z" fill="#3D535A"/>
<path d="M33.9453 11.1719C33.2334 11.1719 32.6562 10.5947 32.6562 9.88281V0H14.1797C12.0473 0 10.3125 1.73482 10.3125 3.86719V18.278C10.7372 18.2395 11.167 18.2188 11.6016 18.2188C15.9954 18.2188 19.9286 20.2276 22.5316 23.375H36.5234C37.2353 23.375 37.8125 23.9522 37.8125 24.6641C37.8125 25.376 37.2353 25.9531 36.5234 25.9531H24.2299C25.0535 27.5602 25.5601 29.3108 25.722 31.1094H36.5234C37.2353 31.1094 37.8125 31.6865 37.8125 32.3984C37.8125 33.1103 37.2353 33.6875 36.5234 33.6875H25.722C25.3365 37.9448 23.0619 41.6647 19.7448 44H39.9609C42.0933 44 43.8281 42.2652 43.8281 40.1328V11.1719H33.9453ZM36.5234 18.2188H17.6172C16.9053 18.2188 16.3281 17.6416 16.3281 16.9297C16.3281 16.2178 16.9053 15.6406 17.6172 15.6406H36.5234C37.2353 15.6406 37.8125 16.2178 37.8125 16.9297C37.8125 17.6416 37.2353 18.2188 36.5234 18.2188Z" fill="#3D535A"/>
<path d="M11.6016 20.7969C5.20446 20.7969 0 26.0013 0 32.3984C0 38.7955 5.20446 44 11.6016 44C17.9987 44 23.2031 38.7955 23.2031 32.3984C23.2031 26.0013 17.9987 20.7969 11.6016 20.7969ZM15.0391 33.6875H11.6016C10.8897 33.6875 10.3125 33.1103 10.3125 32.3984V27.2422C10.3125 26.5303 10.8897 25.9531 11.6016 25.9531C12.3135 25.9531 12.8906 26.5303 12.8906 27.2422V31.1094H15.0391C15.751 31.1094 16.3281 31.6865 16.3281 32.3984C16.3281 33.1103 15.751 33.6875 15.0391 33.6875Z" fill="#3D535A"/>
</svg>
