<svg width="24" height="24" viewBox="0 0 24 24" fill="none" xmlns="http://www.w3.org/2000/svg">
<path d="M12.0073 14.9911C10.3515 14.9911 9.00916 16.3335 9.00916 17.9893V23.9857H15.0055V17.9893C15.0055 16.3335 13.6632 14.9911 12.0073 14.9911Z" fill="currentColor"/>
<path d="M17.0043 17.9893V23.9857H21.0018C22.6577 23.9857 24 22.6434 24 20.9875V11.872C24.0003 11.3528 23.7985 10.8539 23.4374 10.4809L14.9445 1.2994C13.446 -0.321963 10.9168 -0.421512 9.29546 1.07702C9.21845 1.1482 9.14426 1.22239 9.07308 1.2994L0.595191 10.4779C0.223133 10.8525 0.014387 11.3591 0.0145264 11.887V20.9875C0.0145264 22.6434 1.35687 23.9857 3.01271 23.9857H7.01028V17.9893C7.02897 15.2642 9.22922 13.0388 11.8858 12.9747C14.6312 12.9084 16.9833 15.1717 17.0043 17.9893Z" fill="currentColor"/>
<path d="M12.0073 14.9911C10.3515 14.9911 9.00916 16.3335 9.00916 17.9893V23.9857H15.0055V17.9893C15.0055 16.3335 13.6632 14.9911 12.0073 14.9911Z" fill="currentColor"/>
</svg>
