<svg width="14" height="16" viewBox="0 0 14 16" fill="none" xmlns="http://www.w3.org/2000/svg">
    <path
        d="M11.3333 5.616V4.66666C11.3333 2.08934 9.244 0 6.66666 0C4.08931 0 2 2.08934 2 4.66666V5.616C0.786687 6.14553 0.00175 7.34284 0 8.66666V12.6667C0.0021875 14.5067 1.49328 15.9978 3.33331 16H9.99997C11.84 15.9978 13.3311 14.5067 13.3333 12.6667V8.66666C13.3316 7.34284 12.5466 6.14553 11.3333 5.616ZM7.33331 11.3333C7.33331 11.7015 7.03484 12 6.66666 12C6.29847 12 6 11.7015 6 11.3333V10C6 9.63181 6.29847 9.33334 6.66666 9.33334C7.03484 9.33334 7.33331 9.63181 7.33331 10V11.3333ZM10 5.33334H3.33331V4.66669C3.33331 2.82575 4.82569 1.33334 6.66666 1.33334C8.50763 1.33334 10 2.82572 10 4.66669V5.33334Z"
        fill="currentColor" fill-opacity="0.25" />
</svg>