<svg width="141" height="145" viewBox="0 0 141 145" fill="none" xmlns="http://www.w3.org/2000/svg">
<path d="M120.528 68.6969C119.601 64.7304 118.281 60.8663 116.588 57.1616H106.758C107.148 89.878 67.7926 129.601 16.1302 117.154C38.7743 125.91 81.7099 128.652 99.5752 103.714C96.208 128.292 67.4176 139.827 37.8185 139.636C51.625 145.178 66.9733 145.521 81.0136 140.602C95.0539 135.683 106.832 125.836 114.162 112.89C117.113 113.422 120.142 113.355 123.067 112.692C125.993 112.029 128.754 110.783 131.188 109.03C133.621 107.276 135.676 105.05 137.231 102.485C138.785 99.9194 139.807 97.0673 140.235 94.0986C140.664 91.1298 140.49 88.1053 139.724 85.2053C138.958 82.3052 137.615 79.5892 135.777 77.2193C133.938 74.8493 131.641 72.8739 129.023 71.411C126.404 69.948 123.518 69.0275 120.536 68.7043L120.528 68.6969ZM118.198 105.81C117.999 105.81 117.801 105.81 117.595 105.81C120.597 98.4504 122.138 90.577 122.131 82.6289C122.131 80.563 122.014 78.5191 121.815 76.5047C125.337 77.3894 128.415 79.5312 130.468 82.5269C132.522 85.5227 133.409 89.1656 132.964 92.7701C132.518 96.3745 130.771 99.6918 128.05 102.098C125.329 104.503 121.822 105.831 118.19 105.832L118.198 105.81Z" fill="currentColor"/>
<path d="M101.516 57.1616H4.77143C2.46506 62.2233 0.859799 67.5758 0 73.0713C27.8861 83.9817 84.9301 87.7165 101.516 57.1616Z" fill="currentColor"/>
<path d="M46.6703 51.9712C46.6703 51.9712 45.8248 51.5374 44.4647 50.692C43.6248 50.1585 42.8149 49.5793 42.0386 48.9569C41.5533 48.6113 41.1343 48.1776 40.6343 47.7438C40.1173 47.2813 39.6264 46.7904 39.1639 46.2734C38.0721 45.114 37.0992 43.848 36.2599 42.4945C35.777 41.7423 35.3494 40.9561 34.9807 40.1419C34.5778 39.2732 34.2387 38.3763 33.9661 37.4584C33.4087 35.5054 33.1339 33.4827 33.15 31.4518C33.1906 29.4541 33.437 27.4659 33.8852 25.5187C34.3043 23.6587 34.7675 21.9163 35.1939 20.3209C35.5896 18.8448 35.9013 17.3475 36.1276 15.8362C36.313 14.5058 36.3352 13.1578 36.1937 11.822C36.0702 10.561 35.824 9.31507 35.4585 8.10189L34.8704 6.40359L34.2234 4.85966C33.8043 3.8745 33.3632 3.03637 33.0397 2.29382C32.3045 0.882235 31.9075 0 31.9075 0C31.9075 0 32.7457 0.419066 34.1572 1.3013C34.9829 1.87121 35.7757 2.4873 36.5319 3.14665C36.9632 3.54366 37.4166 3.97743 37.892 4.44795C38.3675 4.91848 38.8257 5.46253 39.2669 6.0801C40.2591 7.41593 41.0608 8.88321 41.6489 10.4398C42.3214 12.2341 42.694 14.1268 42.7517 16.042C42.8034 17.982 42.6456 19.9219 42.2812 21.8281C41.9724 23.6881 41.546 25.4232 41.1857 27.0774C40.8241 28.6145 40.5662 30.1742 40.4138 31.7459C40.2957 33.1803 40.3105 34.6225 40.4579 36.0542C40.64 37.4428 40.9426 38.813 41.3622 40.1492C41.7617 41.4304 42.2354 42.6873 42.7811 43.9134C43.0017 44.5163 43.3105 45.0603 43.5531 45.6044C43.7957 46.1484 44.0383 46.6778 44.2883 47.1409C44.7956 48.0893 45.1779 48.9642 45.5822 49.6774C46.2807 51.1037 46.6703 51.9712 46.6703 51.9712Z" fill="currentColor"/>
<path d="M63.6535 51.9711L63.1829 51.7138C62.8889 51.53 62.4477 51.2948 61.9037 50.9419C60.3809 49.9501 58.988 48.772 57.7572 47.435C56.9057 46.5172 56.1471 45.5174 55.4928 44.4501C53.8738 41.8415 53.0393 38.8224 53.0887 35.7527C53.115 34.1815 53.3023 32.6172 53.6474 31.0842C53.9783 29.6138 54.3459 28.2389 54.6767 26.967C54.9916 25.7915 55.2371 24.5984 55.4119 23.394C55.5438 22.3296 55.5438 21.2529 55.4119 20.1885C55.295 19.1897 55.0808 18.2048 54.7723 17.2477L54.287 15.9023L53.765 14.6819C53.4195 13.9467 53.074 13.2115 52.8093 12.6674C52.5446 12.1234 52.2873 11.6676 52.1182 11.3588L51.8829 10.8735L52.3461 11.1309C52.6402 11.3147 53.0813 11.5573 53.6327 11.9249C54.2787 12.3812 54.8997 12.872 55.4928 13.3953C55.831 13.709 56.1839 14.0545 56.5515 14.4319C56.9191 14.8093 57.2768 15.2406 57.6248 15.7259C58.3982 16.7818 59.0217 17.9397 59.4775 19.1666C60.002 20.5802 60.2902 22.0705 60.3304 23.5778C60.3659 25.104 60.2377 26.6297 59.9481 28.1287C59.6981 29.5991 59.3452 30.9665 59.0805 32.2752C58.7916 33.4996 58.5877 34.7426 58.4703 35.9953C58.3792 37.1412 58.3964 38.2933 58.5218 39.436C58.6709 40.5411 58.9169 41.6309 59.257 42.6929C59.5823 43.6945 59.9652 44.6764 60.4039 45.6337C60.5877 46.1116 60.8303 46.538 61.0288 46.9644C61.2273 47.3909 61.4258 47.8099 61.6243 48.1775C62.036 48.9127 62.3595 49.6479 62.6683 50.1699C62.9771 50.6919 63.2124 51.1845 63.4035 51.4859L63.6535 51.9711Z" fill="currentColor"/>
<path d="M78.306 51.9712L77.931 51.8095C77.6958 51.6919 77.3355 51.5448 76.9165 51.3169C76.4079 51.0357 75.9168 50.7239 75.4461 50.3832C74.8165 49.939 74.2217 49.4474 73.6669 48.9128C72.9869 48.2444 72.3805 47.505 71.8583 46.7072C71.232 45.7774 70.7372 44.7655 70.3879 43.7002C70.0278 42.5257 69.8445 41.3042 69.8439 40.0757C69.8507 38.8862 69.9838 37.7008 70.2408 36.5394C70.4908 35.444 70.7628 34.4367 71.0128 33.5398C71.2628 32.6429 71.4686 31.8194 71.5936 31.0622C71.7244 30.3347 71.7713 29.5947 71.7333 28.8566C71.6991 28.1502 71.5982 27.4486 71.4319 26.7613L71.1598 25.7687L70.8511 24.8571C70.6452 24.2763 70.4394 23.7543 70.2703 23.3058C70.1012 22.8574 69.9468 22.5192 69.8439 22.2839L69.7042 21.9016L70.0718 22.0634C70.307 22.181 70.6673 22.328 71.0937 22.5706C71.6042 22.8729 72.0953 23.2069 72.5641 23.5705C72.8361 23.7911 73.1155 24.0337 73.4169 24.3057C73.7183 24.5777 73.983 24.9012 74.2771 25.2394C75.645 26.9331 76.4358 29.0196 76.5341 31.1945C76.5853 32.3515 76.5064 33.5106 76.2989 34.65C76.1298 35.7454 75.8725 36.7526 75.6887 37.6863C75.4863 38.5418 75.3341 39.4083 75.2328 40.2816C75.0558 41.8319 75.1781 43.4018 75.5931 44.906C75.783 45.6532 76.0137 46.3895 76.2842 47.1116C76.5341 47.8026 76.8062 48.4496 77.0194 49.0304C77.2326 49.6112 77.4531 50.1332 77.6664 50.567C77.8796 51.0008 78.0046 51.3684 78.1075 51.6036L78.306 51.9712Z" fill="currentColor"/>
</svg>
