<svg width="20" height="15" viewBox="0 0 20 15" fill="none" xmlns="http://www.w3.org/2000/svg">
    <path
        d="M0.417552 1.21703C3.16246 3.54166 7.97892 7.63141 9.39454 8.9066C9.58458 9.0787 9.7884 9.1662 10 9.1662C10.2112 9.1662 10.4146 9.07952 10.6043 8.90824C12.0211 7.6318 16.8375 3.54166 19.5825 1.21703C19.7534 1.07257 19.7794 0.818668 19.6411 0.642067C19.3212 0.233983 18.8444 0 18.3333 0H1.66673C1.15567 0 0.678762 0.233983 0.358959 0.642106C0.2206 0.818668 0.246655 1.07257 0.417552 1.21703Z"
        fill="#BDBDBD" />
    <path
        d="M19.7583 2.47677C19.6106 2.40802 19.4368 2.43201 19.3139 2.53701C17.5163 4.06083 15.1477 6.07418 13.3614 7.61061C13.2675 7.6912 13.2146 7.8096 13.2166 7.9337C13.2186 8.05741 13.276 8.17417 13.3728 8.25147C15.0326 9.5808 17.5338 11.4094 19.34 12.7091C19.412 12.7611 19.4975 12.7876 19.5833 12.7876C19.6484 12.7876 19.7135 12.7725 19.7734 12.7416C19.9125 12.6704 20 12.5272 20 12.3709V2.85478C20 2.69244 19.9055 2.54474 19.7583 2.47677Z"
        fill="#BDBDBD" />
    <path
        d="M0.659997 12.7091C2.46663 11.4094 4.96826 9.58085 6.62758 8.25148C6.72442 8.17417 6.7818 8.05738 6.78383 7.9337C6.78586 7.8096 6.73297 7.69121 6.63899 7.61062C4.85267 6.07418 2.4837 4.06083 0.686051 2.53701C0.562341 2.43201 0.388201 2.40885 0.241718 2.47678C0.0944136 2.54475 0 2.69244 0 2.85478V12.3709C0 12.5272 0.0874996 12.6704 0.226639 12.7416C0.286444 12.7726 0.351561 12.7876 0.416678 12.7876C0.502536 12.7876 0.587966 12.7612 0.659997 12.7091Z"
        fill="#BDBDBD" />
    <path
        d="M19.4893 13.8427C17.7449 12.5947 14.5316 10.2681 12.6135 8.71127C12.4573 8.58393 12.231 8.58799 12.0772 8.72064C11.7009 9.049 11.3859 9.32572 11.1625 9.52669C10.4765 10.146 9.52432 10.146 8.83667 9.52587C8.61409 9.32529 8.29917 9.04775 7.92277 8.7206C7.77019 8.58713 7.54355 8.58307 7.38687 8.71123C5.47524 10.2627 2.25831 12.5922 0.511088 13.8426C0.413823 13.9126 0.351167 14.0205 0.33898 14.1397C0.327183 14.2589 0.366636 14.3773 0.448432 14.4652C0.763821 14.805 1.20815 14.9999 1.66675 14.9999H18.3333C18.7919 14.9999 19.2358 14.805 19.552 14.4652C19.6334 14.3777 19.6733 14.2593 19.6615 14.1401C19.6492 14.0209 19.5866 13.9127 19.4893 13.8427Z"
        fill="#BDBDBD" />
</svg>