<?xml version="1.0" standalone="no"?>
<!DOCTYPE svg PUBLIC "-//W3C//DTD SVG 20010904//EN" "http://www.w3.org/TR/2001/REC-SVG-20010904/DTD/svg10.dtd">
<svg version="1.0" xmlns="http://www.w3.org/2000/svg" width="512.000000pt" height="512.000000pt"
    viewBox="0 0 512.000000 512.000000" preserveAspectRatio="xMidYMid meet">

    <g transform="translate(0.000000,512.000000) scale(0.100000,-0.100000)" fill="currentColor" stroke="none">
        <path d="M2525 4316 c-51 -22 -55 -45 -55 -296 l0 -230 -63 0 c-91 0 -303 -26
-451 -56 -70 -14 -129 -24 -131 -22 -2 2 -22 73 -45 158 -58 212 -63 220 -134
220 -33 0 -66 -27 -80 -64 -3 -11 13 -91 39 -187 44 -161 47 -189 24 -189 -26
0 -318 -119 -440 -180 l-135 -67 -69 121 c-39 67 -80 131 -92 144 -31 31 -86
30 -118 -3 -40 -39 -33 -74 39 -199 34 -61 68 -121 74 -132 10 -20 4 -27 -87
-87 -148 -98 -171 -121 -171 -168 0 -44 24 -75 65 -85 34 -8 54 1 156 74 383
270 835 451 1309 523 209 32 591 32 800 0 477 -73 928 -253 1309 -523 103 -73
122 -82 156 -74 41 10 65 41 65 84 0 47 -26 74 -160 162 -52 34 -98 66 -103
70 -4 3 26 65 68 136 83 144 91 178 50 219 -32 33 -87 34 -118 3 -12 -13 -53
-77 -91 -144 l-69 -120 -136 67 c-135 66 -415 179 -445 179 -9 0 -16 6 -16 13
0 6 20 86 45 177 25 91 42 174 39 185 -12 39 -46 65 -85 65 -63 0 -74 -18
-125 -205 -25 -93 -47 -171 -49 -173 -2 -2 -59 8 -127 22 -140 29 -363 56
-455 56 l-63 0 0 230 c0 257 -5 279 -61 299 -18 6 -32 11 -33 11 -1 -1 -15 -7
-31 -14z" />
        <path d="M2225 3425 c-760 -83 -1476 -452 -2029 -1044 -128 -136 -196 -227
-196 -261 0 -67 252 -344 509 -557 85 -72 120 -80 167 -39 21 18 28 32 28 61
0 41 6 34 -175 193 -52 45 -147 140 -211 209 -104 113 -116 129 -106 147 22
42 366 373 472 455 292 227 601 399 921 513 l110 39 -88 -88 c-200 -201 -324
-440 -371 -712 -20 -119 -21 -318 -1 -441 85 -520 485 -947 1002 -1069 541
-127 1107 100 1408 564 147 226 215 454 215 726 0 355 -131 675 -382 926 -45
46 -77 83 -71 83 6 0 53 -15 104 -34 338 -123 640 -295 944 -539 101 -81 413
-386 433 -423 9 -18 -3 -35 -106 -147 -64 -69 -159 -164 -211 -209 -181 -159
-175 -152 -175 -193 0 -29 7 -43 28 -61 47 -41 82 -33 167 39 141 116 236 207
340 323 128 143 169 200 169 234 0 34 -64 119 -195 260 -490 528 -1136 890
-1815 1015 -242 44 -632 57 -885 30z m553 -181 c348 -63 658 -304 817 -636
308 -643 -50 -1415 -742 -1598 -431 -114 -904 40 -1181 384 -470 584 -275
1441 401 1761 219 104 457 134 705 89z" />
        <path d="M2411 2899 c-312 -61 -554 -298 -627 -614 -25 -109 -15 -305 20 -410
89 -262 296 -456 561 -526 111 -29 279 -29 390 0 266 70 473 265 560 526 33
99 45 278 25 388 -21 118 -85 158 -161 101 -61 -46 -109 -64 -179 -64 -152 0
-260 108 -260 259 0 71 18 120 64 180 56 75 17 140 -95 160 -75 13 -233 13
-298 0z m175 -186 c-26 -114 -30 -155 -18 -223 44 -255 293 -420 540 -356 35
9 66 16 69 16 10 0 -7 -147 -23 -202 -47 -160 -167 -304 -315 -377 -189 -93
-369 -93 -558 0 -241 119 -379 398 -328 659 58 293 302 497 606 509 31 1 33
-1 27 -26z" />
    </g>
</svg>