<svg width="18" height="22" viewBox="0 0 18 22" fill="none" xmlns="http://www.w3.org/2000/svg">
<path d="M17.9956 8.74519C17.9376 5.71974 17.5161 3.48832 17.5219 3.48626C17.3465 3.1442 17.039 2.85812 16.6628 2.712C14.193 1.75414 11.7645 0.839922 9.39679 0.0598915C9.15475 -0.0199638 8.89954 -0.0199638 8.65792 0.0598915C6.29066 0.837864 3.86248 1.75044 1.39314 2.70706C1.06095 2.8359 0.782285 3.07423 0.600758 3.36401C0.614753 3.36566 0.0932231 4.99364 0.00431191 8.58919C-0.0483762 12.1851 0.399473 13.2624 0.384654 13.2636C0.627102 14.0539 1.08071 14.8578 1.73067 15.6753C2.45719 16.5883 3.43892 17.5313 4.62481 18.4583C6.58785 19.999 8.42494 20.9198 8.50191 20.9524C8.66862 21.0339 8.84521 21.0754 9.02715 21.075C9.2095 21.075 9.38609 21.0335 9.55238 20.9515C9.62977 20.919 11.4689 19.9953 13.4311 18.455C14.6174 17.5272 15.5992 16.5842 16.3261 15.6716C17.0226 14.7961 17.4935 13.937 17.7211 13.0932C17.712 13.092 18.0413 11.7715 17.9956 8.74561V8.74519ZM10.0043 11.105V13.022C10.0043 13.562 9.56679 13.9996 9.02674 14C8.48668 14 8.04871 13.5624 8.04871 13.0224V11.1322C7.34401 10.7819 6.85912 10.055 6.85912 9.21486C6.85912 8.03267 7.81738 7.07399 8.99957 7.07399C10.1818 7.07399 11.14 8.03226 11.1404 9.21445C11.1404 10.0336 10.6802 10.7453 10.0043 11.105Z" fill="#19B890"/>
</svg>
