<svg width="18" height="18" viewBox="0 0 18 18" fill="none" xmlns="http://www.w3.org/2000/svg">
<path d="M15 0H3C1.3425 0 0 1.3425 0 3V12C0 13.6575 1.3425 15 3 15H5.19L8.0025 17.37C8.2875 17.625 8.6475 17.7525 9.0075 17.7525C9.3675 17.7525 9.705 17.6325 9.975 17.385L12.8625 15H15C16.6575 15 18 13.6575 18 12V3C18 1.3425 16.6575 0 15 0ZM12.8775 7.215L11.25 8.5425L11.925 10.59C12.015 10.8675 11.925 11.175 11.6925 11.3475C11.46 11.5275 11.145 11.535 10.8975 11.3775L9.0075 10.1475L7.1475 11.3925C7.035 11.4675 6.9 11.505 6.765 11.505C6.6225 11.505 6.4725 11.46 6.3525 11.37C6.2386 11.2845 6.15425 11.1655 6.11122 11.0297C6.0682 10.8939 6.06864 10.748 6.1125 10.6125L6.7575 8.5425L5.1225 7.215C5.01586 7.12421 4.93937 7.00311 4.9032 6.86781C4.86702 6.7325 4.87289 6.58939 4.92 6.4575C5.0175 6.1875 5.28 6.0075 5.565 6.0075H7.6275L8.355 4.05C8.4525 3.78 8.715 3.6 9 3.6C9.285 3.6 9.5475 3.78 9.645 4.05L10.3725 6.0075H12.435C12.72 6.0075 12.9825 6.1875 13.08 6.4575C13.1775 6.7275 13.095 7.035 12.8775 7.2225V7.215Z" fill="#19B890"/>
</svg>
