<svg width="19" height="18" viewBox="0 0 19 18" fill="none" xmlns="http://www.w3.org/2000/svg">
<path d="M17.649 7.16992L2.90808 0.150418C2.40669 -0.0501393 1.80501 -0.0501393 1.30362 0.150418C0.300836 0.551532 -0.200557 1.75487 0.300836 2.75766L2.50696 7.97214H8.02228C8.62396 7.97214 9.02507 8.37326 9.02507 8.97493C9.02507 9.5766 8.62396 9.97771 8.02228 9.97771H2.50696L0.200557 15.1922C0.100279 15.493 0 15.6936 0 15.9944C0 17.0975 0.902507 18 2.00557 18C2.30641 18 2.60724 17.8997 2.90808 17.6992L17.649 10.7799C18.351 10.4791 18.7521 9.77716 18.7521 8.97493C18.7521 8.1727 18.351 7.47075 17.649 7.16992Z" fill="#F5F5F5"/>
</svg>
