<svg width="18" height="20" viewBox="0 0 18 20" fill="none" xmlns="http://www.w3.org/2000/svg">
    <path
        d="M0.33682 15C1.02612 16.1963 2.55475 16.6073 3.75108 15.918L3.7535 15.9166L4.12432 15.7025C4.82432 16.3014 5.62893 16.7658 6.49764 17.0725V17.5C6.49764 18.8807 7.61694 20 8.99764 20C10.3783 20 11.4976 18.8807 11.4976 17.5V17.0725C12.3665 16.7654 13.1711 16.3003 13.871 15.7008L14.2435 15.9158C15.4401 16.6062 16.9698 16.1958 17.6601 14.9991C18.3505 13.8025 17.9401 12.2728 16.7435 11.5825L16.3735 11.3691C16.54 10.4628 16.54 9.53376 16.3735 8.62746L16.7435 8.41414C17.9401 7.72379 18.3505 6.1941 17.6601 4.99746C16.9698 3.80086 15.4401 3.39043 14.2435 4.08078L13.8726 4.29496C13.1719 3.69679 12.3668 3.23319 11.4976 2.9275V2.5C11.4976 1.1193 10.3783 0 8.99764 0C7.61694 0 6.49764 1.1193 6.49764 2.5V2.9275C5.6288 3.23463 4.82418 3.69967 4.12432 4.29918L3.75182 4.08336C2.55518 3.39297 1.02549 3.8034 0.33514 5C-0.355211 6.1966 0.0551792 7.72633 1.25182 8.41668L1.62182 8.63C1.45526 9.5363 1.45526 10.4654 1.62182 11.3717L1.25182 11.585C0.0584996 12.2772 -0.350563 13.8039 0.33682 15ZM8.99764 6.66668C10.8386 6.66668 12.331 8.15906 12.331 10C12.331 11.8409 10.8386 13.3333 8.99764 13.3333C7.1567 13.3333 5.66432 11.8409 5.66432 10C5.66432 8.15906 7.1567 6.66668 8.99764 6.66668Z"
        fill="currentColor" />
</svg>