<?xml version="1.0" standalone="no"?>
<!DOCTYPE svg PUBLIC "-//W3C//DTD SVG 20010904//EN" "http://www.w3.org/TR/2001/REC-SVG-20010904/DTD/svg10.dtd">
<svg version="1.0" xmlns="http://www.w3.org/2000/svg" width="512.000000pt" height="512.000000pt"
    viewBox="0 0 512.000000 512.000000" preserveAspectRatio="xMidYMid meet">
    <metadata>
        Created by potrace 1.16, written by Peter Selinger 2001-2019
    </metadata>
    <g transform="translate(0.000000,512.000000) scale(0.100000,-0.100000)" fill="#000000" stroke="none">
        <path d="M0 2560 l0 -2560 2560 0 2560 0 0 2560 0 2560 -2560 0 -2560 0 0
-2560z m3968 2125 c43 -9 115 -34 162 -57 158 -76 291 -241 335 -413 13 -51
15 -265 15 -1655 0 -1390 -2 -1604 -15 -1655 -44 -172 -176 -336 -335 -413
-151 -73 -129 -72 -1131 -72 -639 0 -902 3 -930 11 -21 7 -54 25 -74 41 -99
82 -103 240 -8 330 63 60 32 58 1007 58 845 0 893 1 932 19 49 22 97 78 113
130 16 55 16 3047 0 3102 -16 52 -64 108 -113 130 -39 18 -87 19 -930 19 -636
0 -899 3 -927 11 -91 28 -149 109 -149 209 0 96 51 173 135 204 61 22 1801 23
1913 1z m-1528 -1076 c34 -15 154 -128 483 -457 241 -240 450 -457 465 -482
38 -64 38 -156 0 -220 -15 -25 -224 -242 -465 -482 -329 -329 -449 -442 -483
-457 -148 -67 -310 35 -310 194 0 92 22 121 288 388 l246 247 -918 0 c-659 0
-929 3 -957 11 -21 7 -54 25 -74 41 -99 82 -103 240 -8 330 63 60 29 58 1036
58 l921 0 -246 248 c-264 264 -287 295 -288 385 -1 160 162 263 310 196z" />
    </g>
</svg>