<svg width="18" height="18" viewBox="0 0 18 18" fill="none" xmlns="http://www.w3.org/2000/svg">
<path d="M9.84937 14.4169C9.84937 13.197 10.3243 12.0498 11.1871 11.1871C12.0498 10.3243 13.1966 9.84937 14.4169 9.84937C15.4185 9.84937 16.3709 10.17 17.1573 10.762C17.2009 10.125 17.228 9.41238 17.229 8.61469C17.2269 6.60832 17.0585 5.13914 16.8789 4.05949C16.5646 2.28059 14.9488 0.664805 13.1699 0.350508C12.0902 0.170508 10.6211 0.00210937 8.61434 0C6.60797 0.00210937 5.13844 0.170508 4.05879 0.350156C2.28023 0.664453 0.664453 2.28023 0.350156 4.05914C0.170508 5.13879 0.00246094 6.60797 0 8.61434C0.00246094 10.6207 0.170508 12.0902 0.350156 13.1699C0.664453 14.9488 2.28023 16.5646 4.05914 16.8789C5.13879 17.0585 6.60797 17.2266 8.61469 17.229C9.41238 17.228 10.125 17.2009 10.762 17.1573C10.17 16.3709 9.84937 15.4188 9.84937 14.4169ZM4.35797 4.1632H12.8711C13.4216 4.1632 13.8681 4.60969 13.8681 5.16023C13.8681 5.71078 13.4216 6.15727 12.8711 6.15727H4.35797C3.80742 6.15727 3.36094 5.71078 3.36094 5.16023C3.36094 4.60969 3.80742 4.1632 4.35797 4.1632ZM4.35797 10.3208C3.80742 10.3208 3.36094 9.87434 3.36094 9.32379C3.36094 8.77324 3.80742 8.32676 4.35797 8.32676H9.35543C9.90598 8.32676 10.3525 8.77324 10.3525 9.32379C10.3525 9.87434 9.90598 10.3208 9.35543 10.3208H4.35797Z" fill="#19B890"/>
<path d="M14.4166 10.8337C12.4377 10.8337 10.8335 12.4379 10.8335 14.4169C10.8335 16.3958 12.4377 18 14.4166 18C16.3956 18 17.9997 16.3958 17.9997 14.4169C17.9997 12.4379 16.3956 10.8337 14.4166 10.8337ZM15.0846 16.1947C15.0846 16.5635 14.7854 16.8627 14.4166 16.8627C14.0478 16.8627 13.7487 16.5635 13.7487 16.1947V14.4323C13.7487 14.0635 14.0478 13.7644 14.4166 13.7644C14.7854 13.7644 15.0846 14.0635 15.0846 14.4323V16.1947ZM15.0572 13.0025C15.0326 13.1417 14.906 13.2683 14.7668 13.2929C14.6824 13.307 14.5671 13.32 14.4099 13.3203C14.2528 13.3203 14.1378 13.307 14.0531 13.2929C13.9139 13.2683 13.7873 13.1417 13.7627 13.0025C13.7487 12.9182 13.7356 12.8028 13.7353 12.6457C13.7353 12.4885 13.7487 12.3736 13.7627 12.2889C13.7873 12.1496 13.9139 12.0231 14.0531 11.9985C14.1375 11.9844 14.2528 11.9714 14.4099 11.971C14.5671 11.971 14.6821 11.9844 14.7668 11.9985C14.906 12.0231 15.0326 12.1496 15.0572 12.2889C15.0712 12.3732 15.0842 12.4885 15.0846 12.6457C15.0846 12.8028 15.0712 12.9178 15.0572 13.0025Z" fill="#19B890"/>
</svg>
