<svg width="14" height="12" viewBox="0 0 14 12" fill="none" xmlns="http://www.w3.org/2000/svg">
<path d="M4.26537 12C4.21532 12 4.16614 11.9869 4.1227 11.962C4.07927 11.9372 4.04309 11.9014 4.01776 11.8582C2.94452 10.0298 0.0846177 6.13839 0.0558479 6.09929C0.0149857 6.04375 -0.00452382 5.97535 0.000885206 5.90661C0.00629423 5.83787 0.0362606 5.77337 0.0853068 5.72491L0.964423 4.85621C1.01218 4.80902 1.07498 4.78005 1.14188 4.77436C1.20878 4.76866 1.27557 4.78659 1.33062 4.82503L4.20551 6.83249C6.11683 4.37712 7.89304 2.6826 9.06049 1.68415C10.3691 0.564859 11.201 0.061904 11.2358 0.040944C11.2804 0.0141553 11.3315 2.63779e-06 11.3835 3.84601e-09H12.8057C12.8639 -9.52142e-06 12.9208 0.0176743 12.9687 0.0507067C13.0166 0.0837391 13.0534 0.13056 13.0741 0.184961C13.0948 0.239362 13.0985 0.298774 13.0847 0.355318C13.0709 0.411863 13.0402 0.462871 12.9967 0.501577C10.8883 2.37937 8.6963 5.36296 7.22872 7.53514C5.63337 9.89627 4.52588 11.8357 4.51488 11.855C4.48995 11.8987 4.45395 11.9352 4.41049 11.9606C4.36702 11.9861 4.31763 11.9996 4.26727 12L4.26537 12Z" fill="#19B890"/>
</svg>
