<svg width="17" height="20" viewBox="0 0 17 20" fill="none" xmlns="http://www.w3.org/2000/svg">
    <path
        d="M0 5.83333V15.8333C0 18.1308 1.86917 20 4.16667 20H12.5C14.7975 20 16.6667 18.1308 16.6667 15.8333V5.83333H0ZM8.33333 15H5C4.77899 15 4.56703 14.9122 4.41074 14.7559C4.25446 14.5996 4.16667 14.3877 4.16667 14.1667C4.16667 13.9457 4.25446 13.7337 4.41074 13.5774C4.56703 13.4211 4.77899 13.3333 5 13.3333H8.33333C8.55435 13.3333 8.76631 13.4211 8.92259 13.5774C9.07887 13.7337 9.16667 13.9457 9.16667 14.1667C9.16667 14.3877 9.07887 14.5996 8.92259 14.7559C8.76631 14.9122 8.55435 15 8.33333 15ZM11.6667 10.8333H5C4.77899 10.8333 4.56703 10.7455 4.41074 10.5893C4.25446 10.433 4.16667 10.221 4.16667 10C4.16667 9.77899 4.25446 9.56702 4.41074 9.41074C4.56703 9.25446 4.77899 9.16667 5 9.16667H11.6667C11.8877 9.16667 12.0996 9.25446 12.2559 9.41074C12.4122 9.56702 12.5 9.77899 12.5 10C12.5 10.221 12.4122 10.433 12.2559 10.5893C12.0996 10.7455 11.8877 10.8333 11.6667 10.8333ZM16.6667 4.16667H0C0 1.86917 1.86917 0 4.16667 0H12.5C14.7975 0 16.6667 1.86917 16.6667 4.16667Z"
        fill="currentColor" />
</svg>