<svg width="18" height="21" viewBox="0 0 18 21" fill="none" xmlns="http://www.w3.org/2000/svg">
<path d="M16.1052 6.37341H13.5215C12.4767 6.37341 11.6266 5.52337 11.6266 4.47855V1.89422C11.6266 0.846342 10.7785 0 9.73243 0H7.06234C6.0059 0 5.16748 0.857317 5.16748 1.89486V13.5214C5.16748 14.5778 6.0248 15.4163 7.06234 15.4163H16.1052C17.164 15.4163 18.0001 14.5563 18.0001 13.5214V8.26832C18.0001 7.22345 17.15 6.37341 16.1052 6.37341ZM14.0233 8.68855L11.4396 12.5641C11.2117 12.9192 10.664 12.9191 10.4361 12.5641L9.14423 10.6263C8.95945 10.3492 9.03435 9.97479 9.31147 9.79006C9.58854 9.60529 9.96295 9.68019 10.1477 9.9573L10.9378 11.1424L13.0197 8.01954C13.2045 7.74243 13.5789 7.66757 13.856 7.85226C14.1332 8.03703 14.208 8.41148 14.0233 8.68855Z" fill="#19B890"/>
<path d="M1.37762 16.1051V5.23996C0.59375 5.46304 0 6.17981 0 7.06222V18.6888C0 19.7336 0.85004 20.5836 1.89486 20.5836H10.9378C11.8032 20.5836 12.5345 20.0001 12.7603 19.206H4.47855C2.7687 19.206 1.37762 17.815 1.37762 16.1051Z" fill="#19B890"/>
<path d="M3.96107 13.5214V2.6563C3.17721 2.87942 2.5835 3.59627 2.5835 4.47856V16.1051C2.5835 17.1499 3.43354 18 4.47836 18H13.5213C14.3867 18 15.118 17.4165 15.3438 16.6223H7.06205C5.3522 16.6224 3.96107 15.2313 3.96107 13.5214ZM12.8324 4.47856C12.8324 4.85835 13.1414 5.16735 13.5212 5.16735H16.1049C16.6704 5.16666 17.2253 5.3216 17.7086 5.6152C17.5242 5.17804 17.2554 4.77626 16.9098 4.43068L13.5691 1.08997C13.2237 0.744473 12.822 0.4758 12.385 0.291351C12.6784 0.774489 12.8332 1.32901 12.8325 1.89422V4.47856H12.8324Z" fill="#19B890"/>
</svg>
