<svg width="315" height="294" viewBox="0 0 315 294" fill="none" xmlns="http://www.w3.org/2000/svg">
    <path fill-rule="evenodd" clip-rule="evenodd"
        d="M163.784 75.4004C164.358 75.583 164.914 75.8143 165.448 76.0919L168.673 74.3667L168.858 74.5516L171.447 77.1404L171.632 77.3161L169.905 80.541C170.185 81.0741 170.417 81.6311 170.598 82.2053L174.095 83.263V87.431L170.598 88.4905C170.416 89.0643 170.184 89.6212 169.905 90.1548L171.632 93.3779L171.447 93.5628L168.858 96.1516L168.673 96.3254L165.452 94.602C164.918 94.8789 164.361 95.1097 163.788 95.2917L162.726 98.7903H158.562L157.501 95.2917C156.927 95.1107 156.37 94.8793 155.837 94.6001L152.612 96.3254L152.427 96.1516L149.838 93.5628L149.664 93.3779L151.389 90.1548C151.111 89.6211 150.88 89.0643 150.698 88.4905L147.199 87.431V83.263L150.698 82.2053C150.879 81.6311 151.11 81.0742 151.389 80.541L149.664 77.3161L149.838 77.1404L152.427 74.5516L152.612 74.3667L155.837 76.0919C156.371 75.8143 156.927 75.583 157.501 75.4004L158.562 71.9036H162.726L163.784 75.4004ZM160.641 78.6013C161.975 78.6016 163.279 78.9976 164.388 79.739C165.497 80.4805 166.361 81.5341 166.872 82.7668C167.382 83.9994 167.515 85.3557 167.255 86.6641C166.994 87.9725 166.352 89.1743 165.408 90.1176C164.465 91.0608 163.263 91.7031 161.954 91.9632C160.646 92.2233 159.289 92.0896 158.057 91.579C156.824 91.0684 155.771 90.2038 155.03 89.0945C154.289 87.9852 153.893 86.6811 153.893 85.347C153.893 83.5582 154.604 81.8427 155.868 80.5777C157.133 79.3127 158.848 78.6017 160.637 78.6013H160.641Z"
        fill="#B5D3F7" />
    <path
        d="M159.81 288.959C159.81 288.959 155.868 273.019 164.108 268.18C172.348 263.341 169.302 255.83 177.187 250.449C185.072 245.068 175.038 238.638 188.467 230.396C201.895 222.155 211.934 219.653 211.934 219.653C211.934 219.653 206.91 226.641 208.179 240.245C209.447 253.849 197.788 253.139 196.899 264.425C196.009 275.71 184.548 271.041 179.167 281.784C173.786 292.528 160.909 292.717 160.909 292.717L159.81 288.959Z"
        fill="#0B4844" />
    <path
        d="M192.067 243.132C199.784 233.104 205.804 226.186 205.875 226.106C205.9 226.078 205.919 226.044 205.931 226.008C205.944 225.971 205.949 225.933 205.946 225.895C205.944 225.856 205.934 225.819 205.916 225.784C205.899 225.75 205.876 225.719 205.847 225.694C205.818 225.669 205.784 225.65 205.748 225.637C205.712 225.625 205.673 225.62 205.635 225.623C205.597 225.625 205.559 225.635 205.525 225.652C205.491 225.669 205.46 225.693 205.435 225.722C205.366 225.799 199.619 232.403 192.158 242.057C192.712 235.471 195.322 230.948 195.349 230.901C195.388 230.834 195.4 230.755 195.38 230.68C195.36 230.604 195.312 230.54 195.245 230.501C195.178 230.462 195.098 230.451 195.023 230.47C194.948 230.49 194.884 230.539 194.844 230.605C194.815 230.655 191.908 235.691 191.516 242.893C190.188 244.62 188.811 246.438 187.405 248.328C185.488 250.917 183.43 253.744 181.323 256.751C182.021 247.875 183.984 242.466 184.005 242.41C184.031 242.337 184.028 242.256 183.995 242.185C183.962 242.114 183.902 242.059 183.828 242.032C183.755 242.006 183.673 242.009 183.602 242.042C183.532 242.075 183.477 242.135 183.45 242.209C183.428 242.266 181.292 248.145 180.663 257.688C179.508 259.352 178.341 261.059 177.176 262.805C177.091 262.918 177.007 263.032 176.932 263.149C176.917 263.172 176.905 263.198 176.897 263.225C175.012 266.061 173.135 268.99 171.331 271.956C170.184 266.109 173.4 258.714 173.433 258.642C173.46 258.572 173.459 258.494 173.43 258.425C173.401 258.355 173.347 258.3 173.278 258.27C173.209 258.239 173.131 258.237 173.061 258.262C172.99 258.288 172.932 258.34 172.899 258.407C172.753 258.738 169.348 266.564 170.892 272.685C169.733 274.604 168.607 276.538 167.527 278.471L167.512 278.487C167.484 278.521 167.464 278.561 167.453 278.604C164.805 283.353 162.447 288.096 160.628 292.611C160.613 292.647 160.606 292.685 160.606 292.723C160.606 292.762 160.614 292.8 160.629 292.835C160.644 292.87 160.666 292.903 160.693 292.929C160.721 292.956 160.753 292.978 160.789 292.992C160.824 293.007 160.862 293.014 160.901 293.014C160.939 293.013 160.977 293.006 161.012 292.991C161.048 292.976 161.08 292.954 161.107 292.927C161.134 292.899 161.155 292.867 161.169 292.831C162.991 288.314 165.352 283.567 168.011 278.813C171.945 274.312 180.299 275.185 180.382 275.194C180.459 275.203 180.537 275.181 180.597 275.133C180.658 275.084 180.697 275.014 180.706 274.937C180.715 274.86 180.693 274.783 180.644 274.722C180.596 274.661 180.526 274.622 180.449 274.613C180.127 274.578 173.326 273.874 168.951 277.152C171.671 272.394 174.655 267.653 177.658 263.154C181.133 258.631 193.289 257.659 193.415 257.649C193.453 257.646 193.491 257.636 193.525 257.619C193.56 257.601 193.59 257.577 193.615 257.548C193.64 257.519 193.659 257.485 193.671 257.448C193.683 257.412 193.688 257.373 193.685 257.335C193.682 257.297 193.672 257.259 193.654 257.225C193.637 257.191 193.613 257.16 193.584 257.135C193.555 257.11 193.521 257.091 193.484 257.079C193.448 257.067 193.409 257.062 193.371 257.065C192.918 257.1 183.812 257.829 179.032 261.109C179.751 260.049 180.468 259.006 181.183 257.98C181.191 257.971 181.199 257.96 181.205 257.949C183.517 254.62 185.778 251.506 187.875 248.686C188.378 248.007 188.878 247.339 189.375 246.682C194.957 241.758 204.26 240.737 204.353 240.728C204.43 240.72 204.501 240.681 204.55 240.621C204.599 240.56 204.622 240.483 204.614 240.406C204.605 240.329 204.567 240.258 204.507 240.209C204.446 240.16 204.369 240.137 204.292 240.145C204.207 240.145 196.438 241.005 190.721 244.901C191.144 244.345 191.563 243.797 191.98 243.256C192.02 243.223 192.049 243.18 192.067 243.132Z"
        fill="white" />
    <path
        d="M150.195 292.576C117.207 292.533 85.4104 280.239 60.9736 258.08C36.5369 235.92 21.2017 205.474 17.9428 172.647C14.6838 139.82 23.7334 106.953 43.3362 80.4211C62.9389 53.8891 91.6974 35.5837 124.033 29.0555C156.369 22.5274 189.977 28.242 218.337 45.0908C246.698 61.9396 267.79 88.7215 277.522 120.241C287.253 151.761 284.931 185.772 271.006 215.677C257.08 245.582 232.544 269.248 202.156 282.086C185.718 289.043 168.045 292.611 150.195 292.576ZM150.195 27.1078C77.4157 27.1078 18.2058 86.3178 18.2058 159.097C18.2058 231.876 77.4064 291.086 150.195 291.086C222.983 291.086 282.184 231.876 282.184 159.097C282.184 86.3178 222.964 27.1078 150.195 27.1078Z"
        fill="#F3F7FF" />
    <path
        d="M194.14 292.75C164.247 292.711 135.435 281.571 113.291 261.491C91.1474 241.41 77.2512 213.821 74.298 184.075C71.3447 154.328 79.545 124.545 97.3082 100.503C115.071 76.4608 141.131 59.873 170.432 53.9572C199.734 48.0415 230.188 53.2196 255.887 68.4872C281.587 83.7547 300.7 108.023 309.519 136.585C318.337 165.147 316.234 195.967 303.615 223.066C290.996 250.164 268.763 271.61 241.227 283.243C226.33 289.548 210.315 292.781 194.14 292.75ZM194.14 52.162C128.182 52.162 74.5218 105.823 74.5218 171.78C74.5218 237.738 128.19 291.4 194.14 291.4C260.09 291.4 313.76 237.738 313.76 171.78C313.76 105.823 260.099 52.162 194.14 52.162Z"
        fill="#E6F0FF" />
    <path
        d="M73.1774 292.768C73.1774 292.768 70.2003 259.793 42.3113 230.213C26.3254 213.222 15.0844 209.22 9.33351 212.338C5.07121 214.669 3.84337 220.923 5.93477 228.725C10.8221 247.031 55.5217 286.394 73.1774 292.768Z"
        fill="#0B4844" />
    <path
        d="M72.6135 292.558C72.7984 292.632 72.9833 292.702 73.1682 292.768C73.1682 292.768 73.1183 292.214 72.9703 291.191C67.8057 284.124 62.1029 276.622 56.3409 269.207L59.037 252.719C58.751 252.226 58.46 251.73 58.1642 251.229L55.4274 268.025C51.4018 262.847 47.3614 257.745 43.4671 252.862L44.2733 232.336C43.9257 231.95 43.5725 231.561 43.2174 231.177L42.4168 251.538C38.1637 246.212 34.0956 241.194 30.4416 236.721L31.5789 220.091C31.2257 219.806 30.8762 219.536 30.5304 219.257L29.4209 235.471C25.7318 230.947 22.3183 226.8 19.3504 223.216L19.2746 212.55C18.9048 212.412 18.5349 212.282 18.1651 212.169L18.2446 221.881C14.6332 217.524 11.7726 214.115 10.014 212.016C9.7837 212.112 9.55842 212.219 9.33908 212.338C9.22628 212.399 9.11718 212.465 9.00808 212.532C10.7759 214.636 13.7586 218.196 17.5586 222.782L4.93994 221.796C4.93994 222.158 4.9498 222.528 4.96953 222.906L18.5331 223.969C21.501 227.554 24.9164 231.702 28.6054 236.225L8.12973 234.06C8.33561 234.447 8.55073 234.839 8.77509 235.236L29.5947 237.438C33.293 241.965 37.4019 247.054 41.7159 252.442L21.1237 251.493C21.4702 251.877 21.8203 252.26 22.1741 252.644L42.6387 253.581C46.533 258.459 50.5734 263.567 54.599 268.744L37.7532 267.931C38.1896 268.323 38.6272 268.712 39.0661 269.097L55.4903 269.891C61.4353 277.542 67.3193 285.294 72.6135 292.558Z"
        fill="#F4F4F4" />
    <path d="M295.335 288.789H19.1618V294H295.335V288.789Z" fill="#2D464F" />
    <path
        d="M67.0124 241.684L66.4077 242.444C66.1285 242.224 38.5113 220.069 31.2978 195.19L32.2224 194.919C39.3583 219.507 66.735 241.464 67.0124 241.684Z"
        fill="white" />
    <path
        d="M32.5885 197.482C32.5885 197.482 21.8098 186.483 26.8561 183.729C31.9025 180.976 32.5885 197.482 32.5885 197.482Z"
        fill="white" />
    <path
        d="M36.6104 207.715C36.6104 207.715 34.4506 192.333 41.7492 192.879C49.0478 193.424 36.6104 207.715 36.6104 207.715Z"
        fill="white" />
    <path
        d="M45.3088 220.038C45.3088 220.038 39.2695 202.162 47.0027 200.869C54.7358 199.577 45.3088 220.038 45.3088 220.038Z"
        fill="white" />
    <path
        d="M35.9595 205.488C35.9595 205.488 29.4209 198.399 26.2367 198.622C23.0524 198.846 22.4866 202.572 24.5521 203.316C26.6176 204.059 35.9595 205.488 35.9595 205.488Z"
        fill="white" />
    <path
        d="M48.6595 224.176C48.6595 224.176 37.3464 218.813 33.073 222.371C28.7996 225.929 34.8352 228.277 38.3412 227.453C41.8472 226.628 48.6595 224.176 48.6595 224.176Z"
        fill="white" />
    <path
        d="M42.0044 215.407C42.0044 215.407 32.9195 208.314 28.3669 210.648C23.8143 212.981 28.7589 216.308 32.0744 216.273C35.39 216.238 42.0044 215.407 42.0044 215.407Z"
        fill="white" />
    <path
        d="M54.1903 230.359C54.1903 230.359 48.6336 212.754 54.255 211.265C59.8765 209.777 54.1903 230.359 54.1903 230.359Z"
        fill="white" />
    <path
        d="M56.4833 232.719C56.4833 232.719 43.0325 227.118 40.5306 233.425C38.0287 239.733 56.4833 232.719 56.4833 232.719Z"
        fill="white" />
    <path
        d="M157.808 249.274L158.594 250.075C158.886 249.789 187.901 221.043 193.173 191.622L192.063 191.424C186.86 220.502 158.098 248.99 157.808 249.274Z"
        fill="white" />
    <path
        d="M191.986 194.405C191.986 194.405 203.025 180.486 196.899 177.936C190.773 175.386 191.986 194.405 191.986 194.405Z"
        fill="white" />
    <path
        d="M188.591 206.633C188.591 206.633 189.212 188.726 180.906 190.231C172.584 191.764 188.591 206.633 188.591 206.633Z"
        fill="white" />
    <path
        d="M180.097 221.82C180.097 221.82 184.868 200.583 175.844 200.032C166.82 199.48 180.097 221.82 180.097 221.82Z"
        fill="white" />
    <path
        d="M189.068 204.002C189.068 204.002 195.725 195.076 199.397 194.941C203.069 194.806 204.175 199.02 201.895 200.118C199.615 201.217 189.068 203.989 189.068 203.989V204.002Z"
        fill="white" />
    <path
        d="M176.75 226.974C176.75 226.974 189.086 219.459 194.417 223.024C199.748 226.589 193.11 230.01 188.986 229.496C184.863 228.982 176.75 226.981 176.75 226.981V226.974Z"
        fill="white" />
    <path
        d="M183.33 216.11C183.33 216.11 192.897 206.875 198.404 209.004C203.911 211.132 198.635 215.544 194.828 215.905C191.02 216.265 183.33 216.11 183.33 216.11Z"
        fill="white" />
    <path
        d="M171.153 234.74C171.153 234.74 175.406 213.869 168.775 212.841C162.144 211.812 171.153 234.74 171.153 234.74Z"
        fill="white" />
    <path
        d="M168.806 237.719C168.806 237.719 183.563 229.672 187.194 236.61C190.826 243.548 168.806 237.719 168.806 237.719Z"
        fill="white" />
    <path fill-rule="evenodd" clip-rule="evenodd"
        d="M269.079 207.164C271.387 205.348 274.276 204.431 277.209 204.582C280.142 204.733 282.921 205.942 285.031 207.985C287.141 210.028 288.438 212.767 288.684 215.693C288.929 218.62 288.105 221.537 286.365 223.902L295.505 235.511C296.032 236.185 296.27 237.039 296.169 237.888C296.068 238.737 295.635 239.511 294.965 240.042C294.292 240.569 293.438 240.808 292.589 240.708C291.74 240.607 290.965 240.174 290.435 239.504L281.3 227.898C278.592 229.035 275.563 229.152 272.776 228.227C269.988 227.302 267.63 225.398 266.139 222.867C264.648 220.337 264.125 217.352 264.666 214.465C265.208 211.578 266.778 208.985 269.084 207.167L269.079 207.164ZM272.241 211.178C273.333 210.319 274.655 209.803 276.041 209.696C277.426 209.588 278.812 209.894 280.024 210.574C281.236 211.254 282.219 212.278 282.849 213.517C283.478 214.755 283.727 216.153 283.562 217.533C283.398 218.912 282.828 220.213 281.925 221.269C281.022 222.325 279.826 223.089 278.488 223.465C277.151 223.842 275.731 223.813 274.41 223.383C273.089 222.953 271.925 222.141 271.065 221.049C270.494 220.324 270.071 219.493 269.821 218.604C269.571 217.716 269.498 216.787 269.608 215.87C269.717 214.953 270.005 214.067 270.457 213.262C270.909 212.457 271.515 211.749 272.241 211.178Z"
        fill="#B5D3F7" />
    <path fill-rule="evenodd" clip-rule="evenodd"
        d="M158.973 19.3747H223.488C225.624 19.3834 227.67 20.2351 229.181 21.7446C230.692 23.2541 231.546 25.2992 231.558 27.4351V59.1962C231.55 61.336 230.696 63.3859 229.183 64.899C227.67 66.412 225.62 67.2655 223.48 67.2733H219.213V80.6298L205.836 67.2733H158.973C156.833 67.2655 154.783 66.412 153.27 64.899C151.757 63.3859 150.903 61.336 150.896 59.1962V27.4351C150.907 25.2979 151.762 23.2517 153.275 21.742C154.787 20.2323 156.835 19.3815 158.973 19.3747Z"
        fill="#19B890" />
    <path
        d="M221.297 31.3923H161.898C161.66 31.3923 161.467 31.5852 161.467 31.8232V34.6542C161.467 34.8922 161.66 35.0851 161.898 35.0851H221.297C221.535 35.0851 221.727 34.8922 221.727 34.6542V31.8232C221.727 31.5852 221.535 31.3923 221.297 31.3923Z"
        fill="white" />
    <path
        d="M221.297 40.6233H161.898C161.66 40.6233 161.467 40.8162 161.467 41.0542V43.8852C161.467 44.1232 161.66 44.3161 161.898 44.3161H221.297C221.535 44.3161 221.727 44.1232 221.727 43.8852V41.0542C221.727 40.8162 221.535 40.6233 221.297 40.6233Z"
        fill="white" />
    <path
        d="M221.297 49.8561H161.898C161.66 49.8561 161.467 50.049 161.467 50.287V53.118C161.467 53.356 161.66 53.5489 161.898 53.5489H221.297C221.535 53.5489 221.727 53.356 221.727 53.118V50.287C221.727 50.049 221.535 49.8561 221.297 49.8561Z"
        fill="white" />
    <path fill-rule="evenodd" clip-rule="evenodd"
        d="M136.696 40.9488H105.645C104.616 40.9531 103.631 41.3637 102.904 42.091C102.177 42.8183 101.766 43.8034 101.762 44.832V54.2109C101.767 55.2393 102.177 56.2242 102.904 56.9514C103.632 57.6786 104.616 58.0892 105.645 58.0941H107.699V64.5199L114.136 58.0849H136.696C137.724 58.08 138.709 57.6693 139.436 56.9421C140.164 56.2149 140.574 55.23 140.579 54.2016V44.8172C140.575 43.7886 140.164 42.8035 139.437 42.0762C138.71 41.3489 137.724 40.9383 136.696 40.934V40.9488Z"
        fill="#107168" />
    <path
        d="M109.565 52.3414C111.195 52.3414 112.516 51.0201 112.516 49.3901C112.516 47.7602 111.195 46.4389 109.565 46.4389C107.935 46.4389 106.614 47.7602 106.614 49.3901C106.614 51.0201 107.935 52.3414 109.565 52.3414Z"
        fill="white" />
    <path
        d="M121.488 52.3414C123.118 52.3414 124.44 51.0201 124.44 49.3901C124.44 47.7602 123.118 46.4389 121.488 46.4389C119.859 46.4389 118.537 47.7602 118.537 49.3901C118.537 51.0201 119.859 52.3414 121.488 52.3414Z"
        fill="white" />
    <path
        d="M133.412 52.3414C135.042 52.3414 136.363 51.0201 136.363 49.3901C136.363 47.7602 135.042 46.4389 133.412 46.4389C131.782 46.4389 130.461 47.7602 130.461 49.3901C130.461 51.0201 131.782 52.3414 133.412 52.3414Z"
        fill="white" />
    <path fill-rule="evenodd" clip-rule="evenodd"
        d="M292.299 85.7982H261.255C260.226 85.8025 259.241 86.2131 258.514 86.9404C257.787 87.6677 257.376 88.6528 257.372 89.6814V99.0621C257.377 100.091 257.787 101.075 258.514 101.803C259.242 102.53 260.227 102.941 261.255 102.945H263.308V109.367L269.744 102.94H292.304C293.333 102.935 294.317 102.524 295.045 101.797C295.772 101.07 296.182 100.085 296.187 99.0566V89.6758C296.183 88.6473 295.772 87.6621 295.045 86.9348C294.318 86.2075 293.333 85.797 292.304 85.7926L292.299 85.7982Z"
        fill="#107168" />
    <path
        d="M265.173 97.2C266.803 97.2 268.125 95.8787 268.125 94.2488C268.125 92.6188 266.803 91.2975 265.173 91.2975C263.543 91.2975 262.222 92.6188 262.222 94.2488C262.222 95.8787 263.543 97.2 265.173 97.2Z"
        fill="white" />
    <path
        d="M277.097 97.2C278.727 97.2 280.048 95.8787 280.048 94.2488C280.048 92.6188 278.727 91.2975 277.097 91.2975C275.467 91.2975 274.145 92.6188 274.145 94.2488C274.145 95.8787 275.467 97.2 277.097 97.2Z"
        fill="white" />
    <path
        d="M289.02 97.2C290.65 97.2 291.971 95.8787 291.971 94.2488C291.971 92.6188 290.65 91.2975 289.02 91.2975C287.39 91.2975 286.069 92.6188 286.069 94.2488C286.069 95.8787 287.39 97.2 289.02 97.2Z"
        fill="white" />
    <path fill-rule="evenodd" clip-rule="evenodd"
        d="M97.7102 27.8198C97.71 27.7403 97.7254 27.6615 97.7557 27.5881C97.786 27.5146 97.8306 27.4478 97.8868 27.3916C97.943 27.3354 98.0097 27.2909 98.0832 27.2606C98.1567 27.2303 98.2354 27.2148 98.3149 27.2151H103.017C103.178 27.2151 103.331 27.2788 103.445 27.3922C103.558 27.5056 103.622 27.6594 103.622 27.8198C103.621 27.98 103.558 28.1335 103.444 28.2468C103.331 28.3601 103.178 28.4239 103.017 28.4244H98.3149C98.1545 28.4244 98.0007 28.3607 97.8873 28.2473C97.7739 28.1339 97.7102 27.9801 97.7102 27.8198Z"
        fill="#B5D3F7" />
    <path fill-rule="evenodd" clip-rule="evenodd"
        d="M93.4775 27.9233C93.4778 28.0028 93.4623 28.0815 93.432 28.155C93.4017 28.2285 93.3571 28.2952 93.3009 28.3514C93.2447 28.4076 93.178 28.4521 93.1045 28.4824C93.031 28.5127 92.9523 28.5282 92.8728 28.528H88.1704C88.091 28.5282 88.0122 28.5127 87.9387 28.4824C87.8653 28.4521 87.7985 28.4076 87.7423 28.3514C87.6861 28.2952 87.6416 28.2285 87.6113 28.155C87.581 28.0815 87.5655 28.0028 87.5658 27.9233C87.5658 27.7629 87.6295 27.6091 87.7429 27.4957C87.8563 27.3823 88.0101 27.3186 88.1704 27.3186H92.871C92.9505 27.3184 93.0294 27.3338 93.1029 27.3641C93.1765 27.3944 93.2434 27.4389 93.2997 27.4951C93.3561 27.5513 93.4008 27.618 93.4313 27.6915C93.4618 27.765 93.4775 27.8437 93.4775 27.9233Z"
        fill="#B5D3F7" />
    <path fill-rule="evenodd" clip-rule="evenodd"
        d="M95.6447 29.9833C95.725 29.9828 95.8045 29.9982 95.8788 30.0287C95.953 30.0592 96.0205 30.1041 96.0773 30.1609C96.134 30.2177 96.179 30.2851 96.2095 30.3594C96.2399 30.4337 96.2554 30.5132 96.2549 30.5935V35.2903C96.2549 35.4507 96.1912 35.6045 96.0778 35.7179C95.9644 35.8313 95.8106 35.895 95.6502 35.895C95.5708 35.8953 95.492 35.8798 95.4185 35.8495C95.3451 35.8192 95.2783 35.7747 95.2221 35.7185C95.1659 35.6623 95.1214 35.5955 95.0911 35.522C95.0608 35.4486 95.0453 35.3698 95.0456 35.2903V30.5935C95.0448 30.5141 95.0597 30.4353 95.0895 30.3617C95.1192 30.288 95.1631 30.221 95.2187 30.1643C95.2744 30.1076 95.3406 30.0625 95.4137 30.0314C95.4868 30.0004 95.5653 29.984 95.6447 29.9833Z"
        fill="#B5D3F7" />
    <path fill-rule="evenodd" clip-rule="evenodd"
        d="M95.5374 25.7505C95.458 25.7508 95.3792 25.7353 95.3058 25.705C95.2323 25.6747 95.1655 25.6302 95.1093 25.574C95.0531 25.5178 95.0086 25.451 94.9783 25.3776C94.948 25.3041 94.9325 25.2254 94.9328 25.1459V20.4435C94.9328 20.2831 94.9965 20.1293 95.1099 20.0159C95.2233 19.9025 95.3771 19.8388 95.5374 19.8388C95.6978 19.8388 95.8516 19.9025 95.965 20.0159C96.0784 20.1293 96.1421 20.2831 96.1421 20.4435V25.1459C96.1424 25.2254 96.1269 25.3041 96.0966 25.3776C96.0663 25.451 96.0217 25.5178 95.9656 25.574C95.9094 25.6302 95.8426 25.6747 95.7691 25.705C95.6957 25.7353 95.6169 25.7508 95.5374 25.7505Z"
        fill="#B5D3F7" />
    <path fill-rule="evenodd" clip-rule="evenodd"
        d="M11.9427 105.414C11.9427 105.254 12.0064 105.1 12.1198 104.986C12.2332 104.873 12.387 104.809 12.5474 104.809H17.2498C17.3292 104.809 17.408 104.825 17.4814 104.855C17.5549 104.885 17.6217 104.93 17.6779 104.986C17.7341 105.042 17.7786 105.109 17.8089 105.182C17.8392 105.256 17.8547 105.335 17.8544 105.414C17.8544 105.574 17.7907 105.728 17.6773 105.842C17.5639 105.955 17.4101 106.019 17.2498 106.019H12.5474C12.3871 106.018 12.2336 105.954 12.1203 105.841C12.007 105.728 11.9432 105.574 11.9427 105.414Z"
        fill="#B5D3F7" />
    <path fill-rule="evenodd" clip-rule="evenodd"
        d="M7.71181 105.525C7.71181 105.604 7.69617 105.683 7.66579 105.756C7.6354 105.83 7.59086 105.896 7.53471 105.952C7.47856 106.009 7.4119 106.053 7.33854 106.084C7.26518 106.114 7.18655 106.13 7.10714 106.13H2.40474C2.32527 106.13 2.24652 106.114 2.17305 106.084C2.09958 106.054 2.03283 106.009 1.97663 105.953C1.92043 105.897 1.8759 105.83 1.8456 105.757C1.8153 105.683 1.79982 105.604 1.80007 105.525C1.80007 105.365 1.86377 105.211 1.97717 105.097C2.09057 104.984 2.24437 104.92 2.40474 104.92H7.10714C7.26736 104.921 7.42088 104.985 7.53417 105.098C7.64746 105.211 7.71133 105.365 7.71181 105.525Z"
        fill="#B5D3F7" />
    <path fill-rule="evenodd" clip-rule="evenodd"
        d="M9.88274 107.585C10.0431 107.585 10.1969 107.649 10.3103 107.762C10.4237 107.875 10.4874 108.029 10.4874 108.19V112.892C10.4877 112.971 10.4722 113.05 10.4419 113.124C10.4116 113.197 10.367 113.264 10.3108 113.32C10.2546 113.376 10.1879 113.421 10.1144 113.451C10.0409 113.481 9.96221 113.497 9.88274 113.497C9.80333 113.497 9.7247 113.481 9.65133 113.451C9.57797 113.42 9.51132 113.376 9.45517 113.32C9.39902 113.263 9.35448 113.197 9.32409 113.123C9.2937 113.05 9.27806 112.971 9.27806 112.892V108.19C9.27855 108.029 9.34241 107.876 9.45571 107.763C9.569 107.649 9.72252 107.585 9.88274 107.585Z"
        fill="#B5D3F7" />
    <path fill-rule="evenodd" clip-rule="evenodd"
        d="M9.77179 103.352C9.69247 103.352 9.61388 103.337 9.54053 103.307C9.46718 103.277 9.40051 103.232 9.34433 103.176C9.28816 103.12 9.24359 103.054 9.21318 102.98C9.18277 102.907 9.16711 102.829 9.16711 102.749V98.0451C9.16711 97.9658 9.18277 97.8872 9.21318 97.814C9.24359 97.7407 9.28816 97.6742 9.34433 97.6182C9.40051 97.5622 9.46718 97.5178 9.54053 97.4876C9.61388 97.4574 9.69247 97.442 9.77179 97.4423C9.93184 97.4423 10.0854 97.5057 10.1987 97.6187C10.3121 97.7317 10.376 97.885 10.3765 98.0451V102.749C10.376 102.909 10.3121 103.063 10.1987 103.176C10.0854 103.289 9.93184 103.352 9.77179 103.352Z"
        fill="#B5D3F7" />
    <path fill-rule="evenodd" clip-rule="evenodd"
        d="M251.436 54.5937C251.436 54.4334 251.5 54.2799 251.614 54.1666C251.727 54.0533 251.88 53.9895 252.041 53.989H256.743C256.903 53.989 257.057 54.0527 257.171 54.1661C257.284 54.2795 257.348 54.4333 257.348 54.5937C257.348 54.6731 257.332 54.7519 257.302 54.8254C257.272 54.8988 257.227 54.9656 257.171 55.0218C257.115 55.078 257.048 55.1225 256.975 55.1528C256.901 55.1831 256.822 55.1986 256.743 55.1983H252.041C251.88 55.1983 251.726 55.1346 251.613 55.0212C251.5 54.9078 251.436 54.754 251.436 54.5937Z"
        fill="#B5D3F7" />
    <path fill-rule="evenodd" clip-rule="evenodd"
        d="M247.205 54.7065C247.205 54.8667 247.141 55.0202 247.027 55.1335C246.914 55.2468 246.761 55.3107 246.6 55.3112H241.898C241.738 55.3112 241.584 55.2474 241.47 55.134C241.357 55.0206 241.293 54.8668 241.293 54.7065C241.293 54.627 241.309 54.5483 241.339 54.4748C241.369 54.4013 241.414 54.3346 241.47 54.2784C241.526 54.2222 241.593 54.1776 241.666 54.1473C241.74 54.117 241.819 54.1016 241.898 54.1018H246.6C246.761 54.1018 246.915 54.1655 247.028 54.2789C247.141 54.3923 247.205 54.5461 247.205 54.7065Z"
        fill="#B5D3F7" />
    <path fill-rule="evenodd" clip-rule="evenodd"
        d="M249.376 56.7664C249.455 56.7662 249.534 56.7817 249.608 56.812C249.681 56.8423 249.748 56.8868 249.804 56.943C249.86 56.9992 249.905 57.0659 249.935 57.1394C249.965 57.2129 249.981 57.2916 249.981 57.3711V62.0735C249.981 62.2339 249.917 62.3877 249.804 62.5011C249.69 62.6145 249.536 62.6782 249.376 62.6782C249.216 62.6777 249.062 62.6138 248.949 62.5005C248.836 62.3872 248.772 62.2337 248.771 62.0735V57.3711C248.771 57.2107 248.835 57.0569 248.948 56.9435C249.062 56.8301 249.216 56.7664 249.376 56.7664Z"
        fill="#B5D3F7" />
    <path fill-rule="evenodd" clip-rule="evenodd"
        d="M249.265 52.5337C249.186 52.5339 249.107 52.5185 249.033 52.4882C248.96 52.4579 248.893 52.4133 248.837 52.3571C248.781 52.3009 248.736 52.2342 248.706 52.1607C248.676 52.0872 248.66 52.0085 248.66 51.929V47.2359C248.66 47.0755 248.724 46.9217 248.837 46.8083C248.951 46.6949 249.105 46.6312 249.265 46.6312C249.424 46.6331 249.576 46.6976 249.689 46.8108C249.801 46.9239 249.864 47.0766 249.864 47.2359V51.9383C249.862 52.0961 249.798 52.2467 249.686 52.3579C249.574 52.4692 249.423 52.5323 249.265 52.5337Z"
        fill="#B5D3F7" />
    <path fill-rule="evenodd" clip-rule="evenodd"
        d="M286.967 272.012C286.967 271.851 287.031 271.698 287.145 271.584C287.258 271.471 287.412 271.407 287.572 271.407H292.275C292.435 271.407 292.589 271.471 292.702 271.584C292.816 271.698 292.879 271.851 292.879 272.012C292.879 272.091 292.864 272.17 292.834 272.243C292.803 272.317 292.759 272.384 292.703 272.44C292.646 272.496 292.58 272.541 292.506 272.571C292.433 272.601 292.354 272.617 292.275 272.616H287.572C287.493 272.617 287.414 272.601 287.34 272.571C287.267 272.541 287.2 272.496 287.144 272.44C287.088 272.384 287.043 272.317 287.013 272.243C286.983 272.17 286.967 272.091 286.967 272.012Z"
        fill="white" />
    <path fill-rule="evenodd" clip-rule="evenodd"
        d="M282.735 272.125C282.735 272.285 282.671 272.439 282.558 272.552C282.444 272.666 282.29 272.729 282.13 272.729H277.428C277.267 272.729 277.114 272.665 277.001 272.552C276.887 272.438 276.823 272.285 276.823 272.125C276.823 271.964 276.887 271.81 277 271.697C277.114 271.584 277.267 271.52 277.428 271.52H282.13C282.21 271.52 282.288 271.535 282.362 271.565C282.435 271.596 282.502 271.64 282.558 271.696C282.614 271.753 282.659 271.819 282.689 271.893C282.72 271.966 282.735 272.045 282.735 272.125Z"
        fill="white" />
    <path fill-rule="evenodd" clip-rule="evenodd"
        d="M284.907 274.185C284.987 274.184 285.066 274.2 285.139 274.23C285.213 274.26 285.279 274.305 285.336 274.361C285.392 274.417 285.436 274.484 285.467 274.557C285.497 274.631 285.512 274.71 285.512 274.789V279.49C285.512 279.65 285.448 279.804 285.335 279.917C285.222 280.031 285.068 280.094 284.907 280.094C284.747 280.094 284.593 280.031 284.48 279.917C284.367 279.804 284.303 279.65 284.303 279.49V274.787C284.303 274.708 284.318 274.629 284.349 274.556C284.379 274.483 284.424 274.416 284.48 274.36C284.536 274.304 284.603 274.26 284.676 274.23C284.75 274.2 284.828 274.184 284.907 274.185Z"
        fill="white" />
    <path fill-rule="evenodd" clip-rule="evenodd"
        d="M284.795 269.952C284.715 269.952 284.637 269.936 284.564 269.906C284.49 269.875 284.424 269.831 284.368 269.775C284.312 269.718 284.267 269.652 284.237 269.578C284.207 269.505 284.192 269.426 284.192 269.347V264.645C284.192 264.485 284.255 264.331 284.368 264.218C284.481 264.104 284.635 264.04 284.795 264.04C284.955 264.04 285.109 264.104 285.222 264.217C285.336 264.331 285.399 264.484 285.399 264.645V269.347C285.4 269.427 285.384 269.505 285.354 269.579C285.324 269.652 285.279 269.719 285.223 269.775C285.167 269.831 285.1 269.876 285.026 269.906C284.953 269.937 284.874 269.952 284.795 269.952Z"
        fill="white" />
    <path fill-rule="evenodd" clip-rule="evenodd"
        d="M29.1546 278.266C29.1546 278.105 29.2183 277.951 29.3317 277.838C29.4451 277.725 29.5989 277.661 29.7593 277.661H34.4617C34.6219 277.661 34.7754 277.725 34.8887 277.839C35.002 277.952 35.0659 278.105 35.0664 278.266C35.0664 278.426 35.0027 278.58 34.8893 278.693C34.7759 278.807 34.6221 278.87 34.4617 278.87H29.7593C29.6798 278.87 29.6011 278.855 29.5276 278.825C29.4541 278.794 29.3874 278.75 29.3312 278.694C29.275 278.637 29.2305 278.571 29.2002 278.497C29.1699 278.424 29.1544 278.345 29.1546 278.266Z"
        fill="#B5D3F7" />
    <path fill-rule="evenodd" clip-rule="evenodd"
        d="M24.9219 278.38C24.9221 278.46 24.9067 278.538 24.8764 278.612C24.8461 278.685 24.8015 278.752 24.7453 278.808C24.6891 278.865 24.6224 278.909 24.5489 278.939C24.4754 278.97 24.3967 278.985 24.3172 278.985H19.6148C19.4544 278.985 19.3006 278.921 19.1872 278.808C19.0739 278.694 19.0101 278.541 19.0101 278.38C19.0101 278.22 19.0739 278.066 19.1872 277.953C19.3006 277.839 19.4544 277.776 19.6148 277.776H24.3172C24.3967 277.775 24.4754 277.791 24.5489 277.821C24.6224 277.851 24.6891 277.896 24.7453 277.952C24.8015 278.008 24.8461 278.075 24.8764 278.149C24.9067 278.222 24.9221 278.301 24.9219 278.38Z"
        fill="#B5D3F7" />
    <path fill-rule="evenodd" clip-rule="evenodd"
        d="M27.0947 280.438C27.255 280.438 27.4088 280.502 27.5222 280.615C27.6356 280.729 27.6993 280.883 27.6993 281.043V285.745C27.6993 285.906 27.6356 286.06 27.5222 286.173C27.4088 286.286 27.255 286.35 27.0947 286.35C27.0152 286.35 26.9364 286.335 26.863 286.305C26.7895 286.274 26.7227 286.23 26.6665 286.174C26.6103 286.117 26.5658 286.051 26.5355 285.977C26.5052 285.904 26.4897 285.825 26.49 285.745V281.043C26.4897 280.964 26.5052 280.885 26.5355 280.811C26.5658 280.738 26.6103 280.671 26.6665 280.615C26.7227 280.559 26.7895 280.514 26.863 280.484C26.9364 280.454 27.0152 280.438 27.0947 280.438Z"
        fill="#B5D3F7" />
    <path fill-rule="evenodd" clip-rule="evenodd"
        d="M26.9819 276.206C26.8215 276.206 26.6677 276.142 26.5543 276.028C26.4409 275.915 26.3772 275.761 26.3772 275.601V270.899C26.3777 270.738 26.4415 270.585 26.5548 270.471C26.6681 270.358 26.8216 270.294 26.9819 270.294C27.1422 270.294 27.296 270.358 27.4094 270.471C27.5228 270.584 27.5865 270.738 27.5865 270.899V275.606C27.5856 275.766 27.5214 275.919 27.408 276.031C27.2947 276.143 27.1414 276.206 26.9819 276.206Z"
        fill="#B5D3F7" />
    <path
        d="M10.9263 199.671C11.6014 197.023 10.0018 194.329 7.35356 193.654C4.70535 192.979 2.01133 194.579 1.33631 197.227C0.661287 199.875 2.26088 202.569 4.90909 203.244C7.55731 203.919 10.2513 202.32 10.9263 199.671Z"
        fill="#B5D3F7" />
    <path
        d="M68.5828 12.0994C69.2951 9.46098 67.7338 6.74462 65.0954 6.03223C62.457 5.31984 59.7406 6.88118 59.0282 9.51959C58.3158 12.158 59.8772 14.8744 62.5156 15.5868C65.154 16.2991 67.8704 14.7378 68.5828 12.0994Z"
        fill="#B5D3F7" />
    <path
        d="M271.59 76.2195C274.323 76.2195 276.538 74.0041 276.538 71.2712C276.538 68.5383 274.323 66.3228 271.59 66.3228C268.857 66.3228 266.642 68.5383 266.642 71.2712C266.642 74.0041 268.857 76.2195 271.59 76.2195Z"
        fill="#B5D3F7" />
    <path
        d="M284.038 239.174C284.666 236.514 283.019 233.849 280.359 233.221C277.699 232.593 275.034 234.24 274.406 236.9C273.778 239.56 275.426 242.225 278.085 242.853C280.745 243.481 283.41 241.833 284.038 239.174Z"
        fill="#B5D3F7" />
    <path
        d="M14.338 260.136C14.6392 258.29 13.3873 256.55 11.5418 256.249C9.6963 255.948 7.95602 257.2 7.6548 259.045C7.35358 260.891 8.60548 262.631 10.451 262.932C12.2965 263.233 14.0367 261.981 14.338 260.136Z"
        fill="#B5D3F7" />
    <path
        d="M13.0818 88.5571C14.9517 88.5571 16.4676 87.0412 16.4676 85.1713C16.4676 83.3014 14.9517 81.7855 13.0818 81.7855C11.2118 81.7855 9.69597 83.3014 9.69597 85.1713C9.69597 87.0412 11.2118 88.5571 13.0818 88.5571Z"
        fill="#B5D3F7" />
    <path
        d="M118.707 27.4037C120.577 27.4037 122.093 25.8878 122.093 24.0179C122.093 22.148 120.577 20.6321 118.707 20.6321C116.837 20.6321 115.322 22.148 115.322 24.0179C115.322 25.8878 116.837 27.4037 118.707 27.4037Z"
        fill="#B5D3F7" />
    <path
        d="M297.996 173.424C299.866 173.424 301.382 171.908 301.382 170.038C301.382 168.168 299.866 166.652 297.996 166.652C296.126 166.652 294.61 168.168 294.61 170.038C294.61 171.908 296.126 173.424 297.996 173.424Z"
        fill="#B5D3F7" />
    <path
        d="M219.316 5.24237C219.692 3.41063 218.512 1.6209 216.68 1.2449C214.849 0.868896 213.059 2.04901 212.683 3.88075C212.307 5.71248 213.487 7.50219 215.319 7.87819C217.151 8.25419 218.94 7.0741 219.316 5.24237Z"
        fill="#B5D3F7" />
    <path
        d="M195.843 95.5062C197.713 95.5062 199.229 93.9903 199.229 92.1204C199.229 90.2505 197.713 88.7346 195.843 88.7346C193.973 88.7346 192.457 90.2505 192.457 92.1204C192.457 93.9903 193.973 95.5062 195.843 95.5062Z"
        fill="#B5D3F7" />
    <path
        d="M178.788 195.041C181.594 195.041 183.868 192.766 183.868 189.961C183.868 187.156 181.594 184.881 178.788 184.881C175.983 184.881 173.709 187.156 173.709 189.961C173.709 192.766 175.983 195.041 178.788 195.041Z"
        fill="#B5D3F7" />
    <path fill-rule="evenodd" clip-rule="evenodd"
        d="M217.186 119.732C212.803 123.887 208.286 128.937 204.778 132.809C202.208 132.763 190.887 119.913 189.894 119.373L189.125 118.586C189.125 118.586 187.842 113.273 186.322 111.457C185.366 110.347 184.062 109.595 182.623 109.323C182.623 109.323 178.616 103.692 176.177 100.98C173.906 98.4593 171.739 99.5485 173.429 102.115C174.984 104.452 177.878 108.415 177.878 108.415C177.878 108.415 175.676 108.835 175.844 110.286C175.844 110.286 173.574 111.002 174.18 112.909C174.18 112.909 172.115 113.818 173.204 115.668C174.293 117.517 174.271 117.801 175.634 119.096C176.996 120.39 178.653 122.478 181.752 123.046C182.084 123.11 182.411 123.2 182.729 123.316C186.078 128.843 195.941 145.609 206.111 146.086C215.806 146.528 228.815 126.868 230.313 125.244C232.192 123.216 227.107 110.333 217.186 119.732Z"
        fill="#FCA587" />
    <path fill-rule="evenodd" clip-rule="evenodd"
        d="M226.145 276.346C226.145 276.346 223.259 282.883 217.654 284.135C212.049 285.387 208.778 285.035 207.726 286.875C206.673 288.715 206.999 290.305 206.999 290.305C206.999 290.305 214.791 295.783 235.6 290.697C236.004 290.614 236.373 290.409 236.656 290.109C236.94 289.809 237.124 289.429 237.185 289.02C237.386 287.567 237.414 276.953 237.414 276.953L226.145 276.346Z"
        fill="#107168" />
    <g style="mix-blend-mode:multiply" opacity="0.5">
        <path fill-rule="evenodd" clip-rule="evenodd"
            d="M212.977 284.958C210.172 285.377 208.438 285.623 207.726 286.872C207.514 287.23 207.343 287.611 207.215 288.007C209.816 289.271 212.663 289.95 215.555 289.995C217.112 290.01 219.209 289.973 221.572 289.839C220.788 284.063 212.977 284.958 212.977 284.958Z"
            fill="#493B70" />
    </g>
    <path fill-rule="evenodd" clip-rule="evenodd"
        d="M207.215 288.007C206.969 288.745 206.895 289.53 206.999 290.302C206.999 290.302 214.791 295.779 235.6 290.694C236.004 290.61 236.373 290.405 236.656 290.105C236.94 289.805 237.124 289.425 237.184 289.017C237.214 288.758 237.249 288.247 237.273 287.556C230.259 289.59 220.331 290.039 215.555 289.995C212.663 289.95 209.816 289.271 207.215 288.007Z"
        fill="#022A2E" />
    <path fill-rule="evenodd" clip-rule="evenodd"
        d="M249.639 276.106C249.639 276.106 247.205 282.824 241.698 284.455C236.192 286.086 232.9 285.956 231.979 287.863C231.058 289.769 231.487 291.337 231.487 291.337C231.487 291.337 239.633 296.269 260.049 289.782C260.448 289.671 260.802 289.44 261.064 289.121C261.326 288.801 261.483 288.408 261.514 287.996C261.617 286.531 260.922 275.939 260.922 275.939L249.639 276.106Z"
        fill="#107168" />
    <g style="mix-blend-mode:multiply" opacity="0.5">
        <path fill-rule="evenodd" clip-rule="evenodd"
            d="M237.088 285.592C234.315 286.202 232.604 286.565 231.979 287.857C231.792 288.23 231.647 288.621 231.546 289.026C234.227 290.111 237.113 290.594 240.001 290.44C241.556 290.352 243.645 290.172 245.996 289.886C244.82 284.175 237.088 285.599 237.088 285.599V285.592Z"
            fill="#493B70" />
    </g>
    <path fill-rule="evenodd" clip-rule="evenodd"
        d="M231.546 289.031C231.351 289.785 231.331 290.574 231.487 291.337C231.487 291.337 239.633 296.269 260.049 289.782C260.448 289.671 260.802 289.44 261.064 289.121C261.326 288.801 261.483 288.408 261.514 287.996C261.527 287.735 261.527 287.225 261.514 286.531C254.655 289.046 244.779 290.161 240.01 290.44C237.122 290.594 234.236 290.111 231.556 289.026L231.546 289.031Z"
        fill="#022A2E" />
    <path fill-rule="evenodd" clip-rule="evenodd"
        d="M217.8 169.36L217.323 174.524C217.323 174.524 216.381 201.563 219.481 226.025C222.58 250.488 222.569 280.897 222.569 280.897C222.569 280.897 228.368 284.371 237.506 280.897C237.506 280.897 240.208 245.221 238.664 233.756C237.301 223.664 238.952 203.205 238.919 198.585L233.76 174.467L261.105 174.308C260.92 173.265 260.721 172.198 260.504 171.118L217.8 169.36Z"
        fill="#19B890" />
    <path style="mix-blend-mode:multiply" opacity="0.2"
        d="M238.919 198.585L233.76 174.467L261.105 174.308C260.92 173.265 260.719 172.198 260.504 171.118L228.651 169.807L231.794 196.202C231.827 201.313 232.088 223.427 233.458 234.59C234.681 244.635 233.24 271.474 232.589 282.208C234.27 281.948 235.919 281.508 237.506 280.897C237.506 280.897 240.208 245.221 238.664 233.756C237.301 223.664 238.954 203.205 238.919 198.585Z"
        fill="url(#paint0_linear_2_1738)" />
    <path fill-rule="evenodd" clip-rule="evenodd"
        d="M235.759 199.051C235.748 198.426 235.748 198.075 235.748 198.075C235.748 198.075 241.798 244.321 244.886 257.193C247.974 270.065 246.441 280.632 246.441 280.632C246.441 280.632 251.332 285.276 261.118 280.632C261.118 280.632 263.957 248.441 261.118 232.469C258.383 217.044 265.136 203.693 259.859 174.304L232.514 174.463L235.759 199.051Z"
        fill="#19B890" />
    <path style="mix-blend-mode:multiply" opacity="0.2"
        d="M261.118 232.473C258.383 217.047 265.136 203.697 259.859 174.308L254.657 174.339C259.925 204.684 253.178 218.473 255.913 234.407C258.355 248.614 256.591 275.242 256.053 282.374C257.806 282.003 259.507 281.419 261.118 280.636C261.118 280.636 263.957 248.444 261.118 232.473Z"
        fill="url(#paint1_linear_2_1738)" />
    <path
        d="M272.091 127.78C265.009 112.489 254.709 110.213 254.709 110.213C254.524 110.131 254.339 110.05 254.154 109.974C249.901 108.169 245.13 107.646 245.13 107.646L243.544 101.416L233.429 101.542L231.748 107.459C231.748 107.459 223.647 109.678 221.108 111.544H221.034C221.034 111.544 220.979 111.607 220.886 111.718C220.814 111.776 220.746 111.837 220.681 111.903C220.565 112.03 220.462 112.168 220.374 112.315C218.098 114.998 210.44 124.031 205.766 129.697C207.53 134.583 211.128 138.852 216.398 142.562C216.195 156.245 215.266 174.876 215.266 174.876C215.266 174.876 217.332 182.992 238.322 181.448C259.311 179.903 260.604 178.609 261.375 174.876C261.839 172.636 262.3 155.533 262.572 141.003C267.437 140.957 272.899 138.76 274.894 137.878C275.395 137.656 275.678 137.508 275.678 137.508C275.27 134.557 272.091 127.78 272.091 127.78Z"
        fill="#19B890" />
    <path fill-rule="evenodd" clip-rule="evenodd"
        d="M233.429 101.536L231.748 107.454C231.748 107.454 230.296 107.851 228.419 108.452C228.146 112.13 230.099 116.011 234.435 116.42C236.183 116.569 237.942 116.316 239.577 115.68C242.536 114.571 246.955 111.058 248.466 108.212C246.525 107.792 245.138 107.644 245.138 107.644L243.542 101.416L233.429 101.536Z"
        fill="#107168" />
    <path fill-rule="evenodd" clip-rule="evenodd"
        d="M233.429 101.536L231.748 107.454C231.748 107.454 230.012 113.06 234.707 113.515C239.402 113.97 244.049 109.713 245.138 107.646L243.542 101.416L233.429 101.536Z"
        fill="#FCA587" />
    <path fill-rule="evenodd" clip-rule="evenodd"
        d="M180.998 110.05C180.998 110.05 178.239 111.139 177.751 111.15C177.263 111.161 177.965 109.671 178.511 109.458C179.056 109.245 180.998 110.05 180.998 110.05Z"
        fill="#F39071" />
    <g style="mix-blend-mode:multiply" opacity="0.5">
        <path
            d="M213.11 139.991C214.159 140.912 215.257 141.776 216.398 142.58V130.337C216.398 130.337 215.941 134.448 213.11 139.991Z"
            fill="#493B70" />
    </g>
    <g style="mix-blend-mode:multiply" opacity="0.5">
        <path
            d="M257.133 133.273C257.133 133.273 268.48 188.008 215.487 171.316L215.437 171.299C215.333 173.537 215.266 174.889 215.266 174.889C215.266 174.889 217.332 183.005 238.322 181.46C259.311 179.916 260.604 178.622 261.375 174.889C261.837 172.655 262.3 155.657 262.568 141.153L262.488 141.014L257.133 133.273Z"
            fill="#493B70" />
    </g>
    <path
        d="M274.993 138.255C272.986 139.141 267.474 141.358 262.587 141.378V143.473C263.844 147.07 265.275 150.624 266.435 153.56C262.847 155.195 250.486 162.834 249.726 163.546C249.695 163.576 249.668 163.61 249.646 163.648L246.092 165.43C246.092 165.43 240.497 165.044 238.25 165.963C236.869 166.557 235.729 167.599 235.014 168.921C235.014 168.921 228.261 171.09 224.843 172.646C221.676 174.075 222.07 176.529 225.104 175.676C227.878 174.892 232.652 173.272 232.652 173.272C232.652 173.272 232.381 175.565 233.856 175.848C233.856 175.848 233.596 176.619 235.65 176.608C235.65 176.608 235.888 178.901 238.054 178.413C240.219 177.925 240.336 178.811 242.039 177.881C243.742 176.95 246.662 176.871 248.18 174.021C248.713 173.072 249.445 172.248 250.325 171.606C251.316 172.224 274.717 164.949 277.432 155.439C278.841 150.47 277.038 143.688 274.993 138.255Z"
        fill="#FCA587" />
    <path
        d="M233.429 101.536L231.865 107.054C233.181 108.082 236.452 107.929 237.053 107.89C237.51 107.86 241.606 105.468 244.15 103.783L243.544 101.416L233.429 101.536Z"
        fill="#F39071" />
    <path fill-rule="evenodd" clip-rule="evenodd"
        d="M228.621 83.7807C228.621 83.7807 227.219 93.9233 227.626 96.5251C228.055 99.1583 229.912 105.416 231.156 106.468C232.401 107.52 235.67 107.365 236.264 107.328C236.857 107.291 243.793 103.132 244.969 102.017C246.145 100.902 246.449 98.2762 246.449 98.2762C246.449 98.2762 247.723 98.4057 248.812 97.0835C249.901 95.7614 250.352 93.7144 250.476 92.775C250.6 91.8356 249.955 90.6633 249.123 90.5893C248.259 90.5375 247.305 91.4566 247.305 91.4566C247.305 91.4566 246.512 92.4237 246.123 94.6464L246.678 88.8271C246.678 88.8271 244.483 83.7049 245.589 82.4678L246.724 81.2344C246.724 81.2344 244.097 82.7581 239.71 83.3073C235.356 83.8306 228.634 83.7807 228.634 83.7807H228.621Z"
        fill="#FCA587" />
    <path fill-rule="evenodd" clip-rule="evenodd"
        d="M228.044 88.472C227.695 87.2238 227.28 85.3784 227.419 83.5736C227.671 80.43 228.333 77.1256 229.364 76.0494C230.398 74.9399 234.113 72.573 240.563 72.7875C247.013 73.002 248.514 77.194 248.514 77.194C248.514 77.194 252.072 78.1186 252.368 82.2718C252.664 86.425 252.841 96.0683 245.983 100.262C246.198 99.6148 246.352 98.9487 246.443 98.2725C246.443 98.2725 247.717 98.402 248.806 97.0798C249.896 95.7577 250.347 93.7107 250.471 92.7713C250.595 91.8319 249.949 90.6596 249.117 90.5856C248.253 90.5338 247.299 91.4529 247.299 91.4529C247.299 91.4529 246.506 92.42 246.118 94.6426L246.672 88.8234C246.672 88.8234 244.478 83.7012 245.583 82.4641L246.719 81.2307C246.719 81.2307 244.091 82.7544 239.705 83.3036C235.35 83.8269 228.628 83.777 228.628 83.777C228.628 83.777 228.336 85.8998 228.044 88.4702V88.472Z"
        fill="#31271E" />
    <path fill-rule="evenodd" clip-rule="evenodd"
        d="M241.5 88.7753C240.872 88.4054 239.365 87.7176 237.75 88.5016C237.75 88.5016 237.196 87.8729 237.826 87.4457C238.457 87.0186 240.526 87.063 241.205 87.1869C242.035 87.3348 242.471 89.3448 241.5 88.7753Z"
        fill="black" />
    <path fill-rule="evenodd" clip-rule="evenodd"
        d="M228.784 88.4813C229.437 88.1447 230.982 87.5567 232.543 88.448C232.543 88.448 233.133 87.8655 232.543 87.3884C231.953 86.9113 229.873 86.8337 229.187 86.915C228.349 87.0093 227.796 88.9879 228.791 88.4813H228.784Z"
        fill="black" />
    <path fill-rule="evenodd" clip-rule="evenodd"
        d="M230.912 92.1703C231.665 92.1944 232.297 91.5231 232.325 90.6577C232.353 89.7923 231.77 89.0804 231.01 89.0563C230.25 89.0323 229.614 89.7146 229.588 90.5708C229.562 91.427 230.143 92.1463 230.912 92.1703Z"
        fill="black" />
    <path fill-rule="evenodd" clip-rule="evenodd"
        d="M239.387 92.4459C240.139 92.4699 240.783 91.7968 240.811 90.9314C240.838 90.066 240.239 89.3559 239.487 89.3319C238.734 89.3079 238.1 89.9902 238.074 90.8445C238.048 91.6988 238.629 92.4218 239.387 92.4459Z"
        fill="black" />
    <path
        d="M233.146 98.4408C233.117 98.4408 233.088 98.4352 233.061 98.4242C232.462 98.2023 232.094 97.8324 231.966 97.3258C231.65 96.0665 232.998 94.4115 233.418 93.9344C233.441 93.9068 233.469 93.8841 233.501 93.8676C233.533 93.8512 233.568 93.8413 233.604 93.8386C233.64 93.8358 233.676 93.8403 233.711 93.8518C233.745 93.8632 233.776 93.8814 233.803 93.9052C233.83 93.929 233.852 93.958 233.868 93.9905C233.884 94.0229 233.893 94.0582 233.894 94.0942C233.896 94.1301 233.891 94.1661 233.878 94.2C233.866 94.2338 233.847 94.2649 233.823 94.2913C233.083 95.1308 232.288 96.3957 232.489 97.1945C232.573 97.5236 232.82 97.7603 233.248 97.9194C233.307 97.9424 233.356 97.9853 233.386 98.0407C233.417 98.0961 233.427 98.1605 233.414 98.2225C233.402 98.2846 233.369 98.3405 233.32 98.3804C233.271 98.4203 233.209 98.4416 233.146 98.4408Z"
        fill="black" />
    <path
        d="M234.653 101.059C232.565 100.993 231.374 100.101 231.297 100.042C231.244 99.9972 231.211 99.9337 231.204 99.8649C231.197 99.796 231.216 99.727 231.258 99.6722C231.301 99.6173 231.362 99.5808 231.431 99.5702C231.499 99.5596 231.569 99.5756 231.626 99.615C231.741 99.7038 234.498 101.738 239.148 99.419C239.18 99.4009 239.215 99.3895 239.252 99.3855C239.288 99.3815 239.325 99.385 239.36 99.3957C239.395 99.4064 239.428 99.4242 239.456 99.4479C239.484 99.4716 239.507 99.5007 239.523 99.5335C239.539 99.5664 239.549 99.6022 239.551 99.6388C239.553 99.6754 239.548 99.712 239.535 99.7465C239.522 99.7809 239.503 99.8124 239.478 99.8391C239.453 99.8658 239.422 99.8871 239.389 99.9016C237.514 100.837 235.918 101.1 234.653 101.059Z"
        fill="black" />
    <path
        d="M183.722 113.193C182.019 113.58 177.853 111.344 179.759 112.966C181.665 114.588 180.952 114.351 181.701 115C182.45 115.649 181.972 116.703 181.19 116.664C180.408 116.625 179.589 115.621 179.136 115.314C178.683 115.007 178.25 114.678 178.25 114.678C178.25 114.678 177.932 114.493 178.137 114.769C178.623 115.391 179.175 115.958 179.783 116.461C181.632 117.89 180.247 119.22 179.35 118.833C178.217 118.345 177.649 117.561 176.673 116.869C176.196 116.518 175.9 116.574 176.333 116.938C176.765 117.302 177.296 117.777 177.841 118.243C179.454 119.628 178.42 120.462 177.422 120.172C176.423 119.882 176.253 119.333 175.661 118.811C175.266 118.429 174.912 118.006 174.605 117.55L174.663 118.049C174.962 118.418 175.288 118.764 175.639 119.083C177.002 120.388 178.659 122.465 181.758 123.033C182.014 123.084 182.267 123.15 182.516 123.231C182.466 118.301 183.722 113.193 183.722 113.193Z"
        fill="#F39071" />
    <path
        d="M274.894 137.891C272.888 138.776 267.376 140.994 262.488 141.014V143.109C262.609 143.449 262.729 143.788 262.858 144.128C274.458 139.951 274.894 137.891 274.894 137.891Z"
        fill="#F39071" />
    <path fill-rule="evenodd" clip-rule="evenodd"
        d="M22.4977 21.7508H68.3567C69.8767 21.7552 71.3334 22.3602 72.4092 23.434C73.485 24.5077 74.0928 25.9632 74.1002 27.4832V50.0595C74.0948 51.5811 73.488 53.0389 72.412 54.1149C71.3361 55.1908 69.8783 55.7976 68.3567 55.803H65.3241V65.2984L55.8139 55.803H22.4977C20.976 55.7976 19.5183 55.1908 18.4423 54.1149C17.3664 53.0389 16.7595 51.5811 16.7542 50.0595V27.4795C16.7615 25.9595 17.3693 24.504 18.4452 23.4303C19.521 22.3565 20.9777 21.7515 22.4977 21.7471V21.7508Z"
        fill="#028464" />
    <path
        d="M65.8862 30.2459H25.2399C25.002 30.2459 24.8091 30.4388 24.8091 30.6767V32.3576C24.8091 32.5955 25.002 32.7884 25.2399 32.7884H65.8862C66.1242 32.7884 66.3171 32.5955 66.3171 32.3576V30.6767C66.3171 30.4388 66.1242 30.2459 65.8862 30.2459Z"
        fill="white" />
    <path
        d="M65.8862 36.6032H25.2399C25.002 36.6032 24.8091 36.7961 24.8091 37.0341V38.715C24.8091 38.9529 25.002 39.1458 25.2399 39.1458H65.8862C66.1242 39.1458 66.3171 38.9529 66.3171 38.715V37.0341C66.3171 36.7961 66.1242 36.6032 65.8862 36.6032Z"
        fill="white" />
    <path
        d="M65.8862 42.9625H25.2399C25.002 42.9625 24.8091 43.1554 24.8091 43.3933V45.0742C24.8091 45.3122 25.002 45.5051 25.2399 45.5051H65.8862C66.1242 45.5051 66.3171 45.3122 66.3171 45.0742V43.3933C66.3171 43.1554 66.1242 42.9625 65.8862 42.9625Z"
        fill="white" />
    <path fill-rule="evenodd" clip-rule="evenodd"
        d="M22.616 147.619C23.2959 147.836 23.956 148.111 24.5891 148.44L28.4131 146.393L28.6239 146.604L31.6972 149.679L31.908 149.886L29.861 153.71C30.1923 154.343 30.467 155.004 30.682 155.685L34.8297 156.941V161.883L30.682 163.137C30.466 163.819 30.1913 164.48 29.861 165.114L31.908 168.934L31.6972 169.145L28.6239 172.222L28.4131 172.429L24.5928 170.395C23.9587 170.724 23.2973 170.998 22.616 171.212L21.3586 175.36H16.4195L15.1621 171.212C14.481 170.999 13.8207 170.724 13.189 170.391L9.36498 172.424L9.15417 172.217L6.07718 169.14L5.87007 168.929L7.91709 165.108C7.58679 164.474 7.31209 163.813 7.09606 163.132L2.94841 161.883V156.941L7.09606 155.685C7.31108 155.004 7.58583 154.343 7.91709 153.71L5.87007 149.886L6.07718 149.679L9.15417 146.602L9.36498 146.391L13.189 148.438C13.8221 148.109 14.4822 147.834 15.1621 147.617L16.4195 143.47H21.3586L22.616 147.619ZM18.89 151.415C20.4717 151.416 22.0177 151.885 23.3327 152.764C24.6476 153.643 25.6724 154.892 26.2775 156.354C26.8825 157.815 27.0406 159.423 26.7318 160.974C26.423 162.526 25.6612 163.951 24.5426 165.069C23.4241 166.187 21.999 166.949 20.4477 167.257C18.8964 167.565 17.2884 167.407 15.8271 166.802C14.3659 166.196 13.1169 165.171 12.2382 163.856C11.3595 162.541 10.8905 160.995 10.8905 159.413C10.8905 158.363 11.0975 157.322 11.4995 156.352C11.9015 155.382 12.4908 154.5 13.2336 153.757C13.9765 153.015 14.8583 152.425 15.8289 152.024C16.7994 151.622 17.8396 151.415 18.89 151.415Z"
        fill="#19B890" />
    <path
        d="M143.723 69.0559H60.4238C54.3919 69.0559 49.9373 74.7883 50.5419 81.7855L67.2343 273.789C67.8408 280.804 73.2884 286.518 79.3222 286.518H162.632C168.664 286.518 173.119 280.804 172.492 273.789L155.822 81.7836C155.215 74.7883 149.768 69.0559 143.723 69.0559Z"
        fill="#19B890" />
    <path
        d="M143.723 77.2218C146.188 77.2218 148.586 79.8106 148.825 82.6102L164.248 260.281C164.433 262.461 163.276 264.038 161.373 264.038H78.0888C75.6239 264.038 73.2459 261.449 72.987 258.652L57.5521 80.9571C57.3579 78.8009 58.5248 77.2218 60.4275 77.2218H143.723Z"
        fill="url(#paint2_linear_2_1738)" />
    <path
        d="M134.372 270.956H112.296C110.804 270.956 109.809 272.357 110.09 274.062C110.349 275.767 111.777 277.169 113.247 277.169H135.344C136.814 277.169 137.809 275.767 137.55 274.062C137.269 272.357 135.842 270.956 134.372 270.956Z"
        fill="#FFFFFD" />
    <path
        d="M162.632 286.516H79.3222C73.2884 286.516 67.8408 280.803 67.2343 273.787L50.5419 81.7836C50.1185 76.8815 52.1821 72.5952 55.5347 70.4705L51.7365 72.7542C48.2342 74.8345 46.0707 79.1948 46.5034 84.2319L63.1957 276.235C63.8022 283.251 69.2295 288.965 75.2836 288.965H158.571C160.458 288.971 162.301 288.394 163.847 287.312L166.941 285.437C165.616 286.148 164.136 286.519 162.632 286.516Z"
        fill="#028464" />
    <path style="mix-blend-mode:screen" opacity="0.42"
        d="M141.859 77.1349L145.694 263.972L95.3322 264.068L60.7197 79.0691L141.859 77.1349Z"
        fill="url(#paint3_linear_2_1738)" />
    <path fill-rule="evenodd" clip-rule="evenodd"
        d="M113.064 96.3494H105.146C103.211 96.3543 101.358 97.1248 99.9901 98.4925C98.6224 99.8602 97.8519 101.714 97.847 103.648V107.609C97.8509 109.544 98.6209 111.399 99.9886 112.768C101.356 114.137 103.21 114.909 105.146 114.915H113.064C114.997 114.909 116.85 114.138 118.218 112.77C119.585 111.403 120.356 109.55 120.362 107.616V103.648C120.357 101.714 119.586 99.8607 118.219 98.4931C116.851 97.1255 114.998 96.3548 113.064 96.3494Z"
        fill="url(#paint4_linear_2_1738)" />
    <path
        d="M97.847 103.648C97.8482 102.684 98.0409 101.73 98.4139 100.841C98.7869 99.9524 99.3327 99.1465 100.02 98.4704C102.135 98.9013 103.781 101.821 103.781 105.338C103.781 109.112 101.882 112.206 99.5279 112.258C98.4397 110.953 97.8436 109.308 97.8434 107.609L97.847 103.648Z"
        fill="#00060F" />
    <path fill-rule="evenodd" clip-rule="evenodd"
        d="M169.426 166.543L169.333 160.637C169.333 160.637 171.159 150.53 173.324 150.713C175.489 150.896 173.219 156.003 174.032 156.384C174.846 156.765 178.548 150.62 181.673 149.992C184.798 149.363 189.652 158.562 189.548 161.989C189.445 165.415 177.917 169.811 177.917 169.811L169.426 166.543Z"
        fill="#00060F" />
    <path fill-rule="evenodd" clip-rule="evenodd"
        d="M137.267 154.755L142.031 156.186C142.031 156.186 153.865 173.5 155.655 174.944C157.717 173.945 169.398 160.689 169.398 160.689C169.398 160.689 175.266 163.024 178.154 169.707C178.154 169.707 166.432 182.836 163.348 186.496C160.001 190.458 151.376 189.318 147.491 186.416C141.944 183.62 127.737 169.26 127.737 169.26L137.267 154.755Z"
        fill="url(#paint5_linear_2_1738)" />
    <path fill-rule="evenodd" clip-rule="evenodd"
        d="M129.889 152.656C134.667 150.162 141.008 152.826 144.052 158.614C147.096 164.402 145.694 171.124 140.908 173.618C136.123 176.113 129.789 173.448 126.746 167.658C123.702 161.869 125.104 155.149 129.889 152.656Z"
        fill="url(#paint6_linear_2_1738)" />
    <path
        d="M122.33 204.074H101.268C99.0445 204.078 96.9132 204.962 95.3398 206.533C93.7664 208.104 92.8788 210.234 92.8709 212.458V222.865C92.8709 233.198 101.322 241.656 111.662 241.656H111.925C122.258 241.656 130.716 233.198 130.716 222.865V212.458C130.708 210.235 129.821 208.106 128.249 206.535C126.677 204.965 124.547 204.08 122.324 204.074H122.33Z"
        fill="#00060F" />
    <path
        d="M107.396 204.074H101.268C99.0445 204.078 96.9132 204.962 95.3398 206.533C93.7664 208.104 92.8788 210.234 92.8709 212.458V222.865C92.8709 233.198 101.322 241.656 111.662 241.656H111.925C113.311 241.657 114.694 241.504 116.046 241.199C106.904 240.286 99.6962 232.307 99.6962 222.678V212.365C99.6962 207.927 103.128 204.281 107.391 204.072L107.396 204.074Z"
        fill="url(#paint7_linear_2_1738)" />
    <path
        d="M117.894 204.074H110.656H103.247C103.247 204.074 109.952 205.13 110.634 211.559C110.634 211.64 110.649 211.716 110.656 211.79V227.974C110.66 229.963 111.451 231.869 112.856 233.276C114.262 234.682 116.168 235.475 118.156 235.48C120.143 235.473 122.047 234.681 123.451 233.275C124.855 231.869 125.645 229.965 125.649 227.978V211.311C125.649 211.311 124.952 205.024 118.179 204.111C118.082 204.111 117.994 204.089 117.894 204.074Z"
        fill="url(#paint8_linear_2_1738)" />
    <path
        d="M130.248 152.026H93.3499C85.2636 152.026 78.6491 158.642 78.6491 166.713V184.946C78.6491 203.048 93.4553 217.861 111.564 217.861H112.023C130.124 217.861 144.938 203.042 144.938 184.946V166.713C144.938 158.642 138.321 152.026 130.237 152.026H130.248Z"
        fill="#00060F" />
    <path
        d="M104.088 152.026H93.3499C85.2636 152.026 78.6491 158.642 78.6491 166.713V184.946C78.6491 203.048 93.4553 217.861 111.564 217.861H112.023C114.449 217.863 116.868 217.594 119.234 217.06C103.221 215.459 90.5947 201.479 90.5947 184.611V166.551C90.5947 158.784 96.6063 152.388 104.075 152.02L104.088 152.026Z"
        fill="url(#paint9_linear_2_1738)" />
    <path fill-rule="evenodd" clip-rule="evenodd"
        d="M118.67 102.592H101.068C96.7691 102.605 92.6497 104.318 89.6098 107.358C86.5699 110.398 84.8564 114.518 84.8438 118.817V127.624C84.8438 136.537 92.1424 143.849 101.068 143.849H118.67C127.596 143.849 134.895 136.537 134.895 127.624V118.817C134.882 114.518 133.169 110.398 130.129 107.358C127.089 104.318 122.969 102.605 118.67 102.592Z"
        fill="url(#paint10_linear_2_1738)" />
    <path
        d="M84.8438 118.817C84.8447 116.672 85.2722 114.549 86.1014 112.571C86.9306 110.594 88.145 108.8 89.6737 107.296C94.378 108.265 98.0282 114.754 98.0282 122.574C98.0282 130.966 93.8048 137.841 88.5975 137.957C86.1788 135.057 84.8537 131.401 84.853 127.624L84.8438 118.817Z"
        fill="url(#paint11_linear_2_1738)" />
    <path fill-rule="evenodd" clip-rule="evenodd"
        d="M124.88 110.784H106.594C104.839 110.787 103.157 111.485 101.916 112.724C100.674 113.964 99.973 115.644 99.9661 117.398V125.943C99.9695 127.7 100.669 129.384 101.911 130.626C103.153 131.869 104.837 132.569 106.594 132.573H124.88C126.634 132.566 128.315 131.865 129.555 130.622C130.794 129.38 131.491 127.698 131.494 125.943V117.398C131.488 115.646 130.79 113.967 129.55 112.728C128.311 111.489 126.632 110.79 124.88 110.784Z"
        fill="#00060F" />
    <path fill-rule="evenodd" clip-rule="evenodd"
        d="M124.604 124.9C123.972 124.902 123.353 124.716 122.826 124.366C122.299 124.016 121.888 123.518 121.644 122.934C121.401 122.351 121.336 121.708 121.458 121.087C121.58 120.467 121.883 119.896 122.329 119.448C122.775 118.999 123.344 118.694 123.964 118.569C124.585 118.444 125.228 118.506 125.813 118.747C126.397 118.988 126.898 119.397 127.25 119.922C127.602 120.447 127.791 121.065 127.792 121.698C127.791 122.544 127.456 123.356 126.858 123.956C126.261 124.556 125.451 124.895 124.604 124.9Z"
        fill="#CE2541" />
    <path fill-rule="evenodd" clip-rule="evenodd"
        d="M108.851 124.9C108.219 124.899 107.602 124.711 107.077 124.359C106.552 124.008 106.143 123.508 105.902 122.924C105.661 122.34 105.598 121.698 105.721 121.078C105.845 120.458 106.149 119.889 106.596 119.442C107.043 118.996 107.612 118.691 108.232 118.568C108.851 118.444 109.494 118.507 110.078 118.748C110.662 118.99 111.161 119.399 111.513 119.923C111.865 120.448 112.053 121.066 112.054 121.698C112.055 122.118 111.972 122.535 111.812 122.924C111.651 123.313 111.415 123.666 111.118 123.964C110.82 124.261 110.467 124.497 110.078 124.658C109.689 124.819 109.272 124.901 108.851 124.9Z"
        fill="#CE2541" />
    <path fill-rule="evenodd" clip-rule="evenodd"
        d="M88.4533 132.021C85.2118 132.021 82.573 127.768 82.573 122.57C82.573 117.372 85.2118 113.106 88.4533 113.106C91.6949 113.106 94.3355 117.36 94.3355 122.57C94.3355 127.781 91.6968 132.021 88.4533 132.021Z"
        fill="#2D2621" />
    <path fill-rule="evenodd" clip-rule="evenodd"
        d="M88.4533 132.021C85.2118 132.021 82.573 127.768 82.573 122.57C82.573 117.372 85.2118 113.106 88.4533 113.106C91.6949 113.106 94.3355 117.36 94.3355 122.57C94.3355 127.781 91.6968 132.021 88.4533 132.021Z"
        fill="#00060F" />
    <path fill-rule="evenodd" clip-rule="evenodd"
        d="M86.6171 129.357C84.6477 129.357 83.0334 126.398 83.0334 122.741C83.0334 119.083 84.6477 116.113 86.6171 116.113C88.5864 116.113 90.2137 119.092 90.2137 122.741C90.2137 126.389 88.5994 129.357 86.6171 129.357Z"
        fill="url(#paint12_linear_2_1738)" />
    <path fill-rule="evenodd" clip-rule="evenodd"
        d="M134.409 131.557C136.759 130.322 138.464 126.766 138.464 122.565C138.464 118.09 136.535 114.347 133.95 113.363C134.572 115.113 134.891 116.955 134.895 118.811V127.619C134.894 128.946 134.73 130.269 134.409 131.557Z"
        fill="#00060F" />
    <path fill-rule="evenodd" clip-rule="evenodd"
        d="M108.511 136.143C108.798 137.578 109.574 138.87 110.706 139.798C111.837 140.726 113.256 141.233 114.72 141.233C116.183 141.233 117.602 140.726 118.734 139.798C119.866 138.87 120.641 137.578 120.928 136.143H108.511Z"
        fill="#CE2541" />
    <path fill-rule="evenodd" clip-rule="evenodd"
        d="M118.907 143.849H100.832V145.633C100.833 145.887 100.934 146.129 101.114 146.309C101.293 146.488 101.536 146.589 101.789 146.591H117.949C118.203 146.589 118.446 146.488 118.625 146.309C118.804 146.129 118.906 145.887 118.907 145.633V143.849Z"
        fill="url(#paint13_linear_2_1738)" />
    <path fill-rule="evenodd" clip-rule="evenodd"
        d="M116.4 149.348H103.339C102.974 149.346 102.625 149.2 102.367 148.942C102.109 148.684 101.963 148.335 101.961 147.97C101.963 147.605 102.109 147.256 102.367 146.998C102.625 146.74 102.974 146.593 103.339 146.591H116.4C116.581 146.591 116.76 146.627 116.927 146.696C117.094 146.765 117.246 146.867 117.374 146.995C117.502 147.123 117.604 147.275 117.673 147.443C117.742 147.61 117.777 147.789 117.777 147.97C117.777 148.151 117.742 148.33 117.672 148.498C117.603 148.665 117.502 148.817 117.374 148.945C117.246 149.072 117.094 149.174 116.927 149.243C116.76 149.312 116.58 149.348 116.4 149.348Z"
        fill="url(#paint14_linear_2_1738)" />
    <path fill-rule="evenodd" clip-rule="evenodd"
        d="M117.465 149.348H102.276C101.905 149.355 101.55 149.498 101.277 149.75C101.004 150.001 100.833 150.344 100.796 150.713C100.78 150.889 100.801 151.067 100.858 151.234C100.915 151.402 101.006 151.556 101.126 151.686C101.246 151.816 101.393 151.919 101.555 151.988C101.718 152.058 101.894 152.093 102.07 152.09H117.256C117.628 152.082 117.985 151.937 118.258 151.683C118.53 151.429 118.7 151.084 118.735 150.713C118.75 150.537 118.728 150.361 118.67 150.195C118.612 150.029 118.521 149.876 118.401 149.748C118.281 149.619 118.135 149.517 117.973 149.448C117.811 149.38 117.637 149.345 117.461 149.348H117.465Z"
        fill="url(#paint15_linear_2_1738)" />
    <path fill-rule="evenodd" clip-rule="evenodd"
        d="M68.8855 204.486L72.3767 208.909C72.3767 208.909 76.8665 217.626 75.1061 218.754C73.3457 219.882 69.8434 214.769 69.0168 214.954C68.1903 215.139 71.2081 221.846 69.2018 224.143C67.1954 226.439 58.1752 222.279 56.2725 219.614C54.3697 216.949 60.5514 206.934 60.5514 206.934L68.8855 204.486Z"
        fill="#00060F" />
    <path
        d="M130.248 152.026H93.3498C90.9521 152.028 88.5912 152.616 86.4728 153.739C84.3544 154.863 82.5427 156.487 81.1953 158.47L91.2492 161.948C91.2492 161.948 94.2079 156.935 106.017 157.355C114.299 157.643 121.111 157.643 129.394 157.355C141.043 156.935 144.07 161.804 144.148 161.948C143.146 159.057 141.27 156.549 138.78 154.771C136.289 152.993 133.308 152.034 130.248 152.026Z"
        fill="#00060F" />
    <path
        d="M122.478 152.026H109.796V152.039L96.8152 152.026C96.8152 152.026 108.563 153.875 109.759 165.138C109.772 165.282 109.785 165.414 109.798 165.545V193.898C109.806 197.38 111.193 200.718 113.656 203.18C116.118 205.643 119.456 207.03 122.938 207.038C126.419 207.028 129.754 205.64 132.214 203.177C134.675 200.715 136.06 197.379 136.067 193.898V164.705C136.067 164.705 134.847 153.694 122.975 152.083C122.805 152.07 122.648 152.044 122.478 152.018V152.026Z"
        fill="url(#paint16_linear_2_1738)" />
    <path fill-rule="evenodd" clip-rule="evenodd"
        d="M90.3339 169.178L89.8864 173.903C89.8864 173.903 75.8939 188.236 74.8842 190.176C73.8746 192.115 72.3768 208.906 72.3768 208.906C72.3768 208.906 66.5482 210.442 60.5422 206.938C60.5422 206.938 62.1177 190.201 62.4191 185.66C62.7205 181.118 74.9674 162.965 74.9674 162.965L90.3339 169.178Z"
        fill="url(#paint17_linear_2_1738)" />
    <path fill-rule="evenodd" clip-rule="evenodd"
        d="M90.1102 154.712C85.3319 152.218 78.9782 154.883 75.9475 160.672C72.9167 166.462 74.3054 173.182 79.091 175.674C83.8767 178.167 90.21 175.504 93.2537 169.716C96.2974 163.929 94.8958 157.207 90.1102 154.712Z"
        fill="#00060F" />
    <path fill-rule="evenodd" clip-rule="evenodd"
        d="M86.214 156.759C83.1555 155.171 79.1114 156.865 77.1532 160.567C75.1949 164.269 76.1158 168.561 79.1613 170.149C82.2069 171.738 86.2621 170.044 88.2222 166.342C90.1823 162.64 89.2596 158.348 86.214 156.759Z"
        fill="url(#paint18_linear_2_1738)" />
    <path
        d="M123.487 180.366C127.29 180.366 130.372 176.359 130.372 171.416C130.372 166.473 127.29 162.466 123.487 162.466C119.685 162.466 116.603 166.473 116.603 171.416C116.603 176.359 119.685 180.366 123.487 180.366Z"
        fill="#CE2541" />
    <defs>
        <linearGradient id="paint0_linear_2_1738" x1="217.19" y1="226.007" x2="236.992" y2="226.007"
            gradientUnits="userSpaceOnUse">
            <stop stop-color="#F5586A" />
            <stop offset="1" stop-color="#B4222F" />
        </linearGradient>
        <linearGradient id="paint1_linear_2_1738" x1="231.312" y1="228.342" x2="261.177" y2="228.342"
            gradientUnits="userSpaceOnUse">
            <stop stop-color="#F5586A" />
            <stop offset="1" stop-color="#B4222F" />
        </linearGradient>
        <linearGradient id="paint2_linear_2_1738" x1="110.9" y1="283.29" x2="110.9" y2="90.1455"
            gradientUnits="userSpaceOnUse">
            <stop stop-color="#EEF5FB" />
            <stop offset="1" stop-color="#65FFD8" />
        </linearGradient>
        <linearGradient id="paint3_linear_2_1738" x1="127.789" y1="286.864" x2="102.117" y2="84.6166"
            gradientUnits="userSpaceOnUse">
            <stop stop-color="#CEFAFF" />
            <stop offset="1" />
        </linearGradient>
        <linearGradient id="paint4_linear_2_1738" x1="97.847" y1="105.628" x2="120.362" y2="105.628"
            gradientUnits="userSpaceOnUse">
            <stop stop-color="#EEF5FB" />
            <stop offset="0.89" stop-color="#7A7A7B" />
        </linearGradient>
        <linearGradient id="paint5_linear_2_1738" x1="186.73" y1="171.902" x2="135.755" y2="171.902"
            gradientUnits="userSpaceOnUse">
            <stop stop-color="#EEF5FB" />
            <stop offset="0.89" stop-color="#7A7A7B" />
        </linearGradient>
        <linearGradient id="paint6_linear_2_1738" x1="125.142" y1="163.137" x2="145.662" y2="163.137"
            gradientUnits="userSpaceOnUse">
            <stop stop-color="#3074CD" />
            <stop offset="1" stop-color="#0D1C51" />
        </linearGradient>
        <linearGradient id="paint7_linear_2_1738" x1="92.8765" y1="222.865" x2="116.052" y2="222.865"
            gradientUnits="userSpaceOnUse">
            <stop stop-color="#19B890" />
            <stop offset="1" stop-color="#028464" />
        </linearGradient>
        <linearGradient id="paint8_linear_2_1738" x1="103.247" y1="219.775" x2="125.649" y2="219.775"
            gradientUnits="userSpaceOnUse">
            <stop stop-color="#EEF5FB" />
            <stop offset="0.89" stop-color="#7A7A7B" />
        </linearGradient>
        <linearGradient id="paint9_linear_2_1738" x1="78.6491" y1="184.946" x2="119.247" y2="184.946"
            gradientUnits="userSpaceOnUse">
            <stop stop-color="#19B890" />
            <stop offset="1" stop-color="#028464" />
        </linearGradient>
        <linearGradient id="paint10_linear_2_1738" x1="84.8438" y1="123.219" x2="134.895" y2="123.219"
            gradientUnits="userSpaceOnUse">
            <stop stop-color="#EEF5FB" />
            <stop offset="0.89" stop-color="#7A7A7B" />
        </linearGradient>
        <linearGradient id="paint11_linear_2_1738" x1="84.8438" y1="122.626" x2="98.0282" y2="122.626"
            gradientUnits="userSpaceOnUse">
            <stop stop-color="#19B890" />
            <stop offset="1" stop-color="#028464" />
        </linearGradient>
        <linearGradient id="paint12_linear_2_1738" x1="83.0334" y1="122.735" x2="90.2137" y2="122.735"
            gradientUnits="userSpaceOnUse">
            <stop stop-color="#EEF5FB" />
            <stop offset="0.89" stop-color="#7A7A7B" />
        </linearGradient>
        <linearGradient id="paint13_linear_2_1738" x1="100.832" y1="145.219" x2="118.907" y2="145.219"
            gradientUnits="userSpaceOnUse">
            <stop stop-color="#EEF5FB" />
            <stop offset="0.89" stop-color="#7A7A7B" />
        </linearGradient>
        <linearGradient id="paint14_linear_2_1738" x1="101.961" y1="147.97" x2="117.777" y2="147.97"
            gradientUnits="userSpaceOnUse">
            <stop stop-color="#020E25" />
            <stop offset="1" stop-color="#0E2B51" />
        </linearGradient>
        <linearGradient id="paint15_linear_2_1738" x1="100.789" y1="150.72" x2="118.739" y2="150.72"
            gradientUnits="userSpaceOnUse">
            <stop stop-color="#EEF5FB" />
            <stop offset="0.89" stop-color="#7A7A7B" />
        </linearGradient>
        <linearGradient id="paint16_linear_2_1738" x1="96.8152" y1="179.532" x2="136.062" y2="179.532"
            gradientUnits="userSpaceOnUse">
            <stop stop-color="#EEF5FB" />
            <stop offset="0.89" stop-color="#7A7A7B" />
        </linearGradient>
        <linearGradient id="paint17_linear_2_1738" x1="75.4408" y1="211.731" x2="75.4408" y2="162.089"
            gradientUnits="userSpaceOnUse">
            <stop stop-color="#EEF5FB" />
            <stop offset="0.89" stop-color="#7A7A7B" />
        </linearGradient>
        <linearGradient id="paint18_linear_2_1738" x1="76.1306" y1="163.457" x2="89.2429" y2="163.457"
            gradientUnits="userSpaceOnUse">
            <stop stop-color="#EEF5FB" />
            <stop offset="0.89" stop-color="#7A7A7B" />
        </linearGradient>
    </defs>
</svg>